<?xml version="1.0" encoding="UTF-8" standalone="no"?>
<svg
   height="512pt"
   version="1.1"
   viewBox="0 0 512 512"
   width="512pt"
   id="svg68"
   sodipodi:docname="pynoplialg.svg"
   inkscape:version="1.1.2 (0a00cf5339, 2022-02-04)"
   xmlns:inkscape="http://www.inkscape.org/namespaces/inkscape"
   xmlns:sodipodi="http://sodipodi.sourceforge.net/DTD/sodipodi-0.dtd"
   xmlns="http://www.w3.org/2000/svg"
   xmlns:svg="http://www.w3.org/2000/svg">
  <defs
     id="defs72" />
  <sodipodi:namedview
     id="namedview70"
     pagecolor="#ffffff"
     bordercolor="#666666"
     borderopacity="1.0"
     inkscape:pageshadow="2"
     inkscape:pageopacity="0.0"
     inkscape:pagecheckerboard="0"
     inkscape:document-units="pt"
     showgrid="false"
     inkscape:zoom="1.1455078"
     inkscape:cx="340.89685"
     inkscape:cy="341.76982"
     inkscape:window-width="1920"
     inkscape:window-height="1016"
     inkscape:window-x="0"
     inkscape:window-y="0"
     inkscape:window-maximized="1"
     inkscape:current-layer="svg68" />
  <g
     id="g438"
     transform="matrix(0.84583407,0,0,0.84583407,2.3224099,75.068241)">
    <path
       d="m 415.81,50.59 c 9.44,-2.47 19.35,-4.69 29.12,-3.35 7.39,0.46 13.43,5.31 18.54,10.24 7.99,8.11 11.16,19.58 12.79,30.55 3.09,23.03 0.7,46.41 -3.69,69.12 -1.1,7.17 -3.03,14.22 -3.47,21.48 -3.31,-1.3 -6.67,-2.58 -10.18,-3.23 -3.5,-0.65 -7.13,-0.6 -10.5,-1.8 0.73,-1.61 1.46,-3.24 1.87,-4.97 3.55,-17.06 7.97,-34.11 8.33,-51.63 0.05,-5.41 0.32,-10.95 -1.42,-16.16 -1.72,-9.8 -7.05,-19.02 -15.3,-24.71 -7.32,-4.76 -16.32,-6.29 -24.92,-5.58 -16.14,1.21 -31.18,7.85 -45.58,14.77 -11.54,5.13 -22.28,11.8 -33.4,17.74 -10.46,5.26 -20,12.1 -30.24,17.76 -9.36,5.22 -17.73,11.96 -26.49,18.08 l 0.37,0.92 c -2,-0.31 -4.02,-0.44 -6.03,-0.58 -0.3,3.67 -0.32,7.36 -0.23,11.04 -9.5,1.8 -18.93,3.98 -28.32,6.27 2.24,-5.22 6.37,-9.18 9.91,-13.5 1.9,-2.26 -0.08,-4.7 -2.17,-5.79 -2.22,-2.89 -2.35,-6.59 -3.09,-10 -2.06,-4.89 -5.96,-8.68 -9.8,-12.2 -13.93,-12.2 -28.15,-24.13 -43.54,-34.48 -9.55,-6.01 -19.92,-11.01 -30.9,-13.75 -10.89,-2.69 -23.47,0.02 -31.01,8.67 -10.59,11.45 -13.89,27.43 -14.86,42.52 -0.92,24.05 2.44,47.98 5.93,71.72 3.32,0.57 6.67,0.97 10.02,1.42 13.06,2.26 26.3,5.43 37.63,12.6 7.01,3.67 12.86,9.13 17.72,15.32 7.16,8.12 10.91,18.45 14.64,28.43 2.56,6.9 7.34,12.55 11.68,18.37 2.83,5.03 7.72,8.4 12.44,11.49 12.96,8.07 28.23,11.79 43.35,12.71 10.35,0.8 20.96,0.96 30.89,4.25 6.65,2.25 10.66,8.84 11.86,15.47 0.88,-1.62 1.81,-3.22 2.47,-4.94 2.15,-6.74 5.24,-13.12 7.9,-19.66 4.38,-11.31 8.24,-22.81 12.14,-34.29 0.41,-0.14 1.24,-0.43 1.65,-0.58 5.64,3.93 10.14,9.56 12.94,15.83 0.82,1.55 0.81,3.32 0.87,5.03 -1.86,-5.11 -3.3,-10.84 -7.72,-14.42 -1.88,15.79 -5.96,31.25 -11,46.31 -9.13,28.82 -23.11,55.71 -35.83,83.04 -6.26,13.89 -13.9,27.13 -19.64,41.26 -7.53,15.06 -13.42,30.89 -21.46,45.7 -1.93,3.56 -3.89,7.1 -5.71,10.72 -0.57,1.09 -1.31,2.07 -2.19,2.94 -4.07,-5.63 -7.02,-11.93 -10.55,-17.87 9.33,-17.14 18.17,-34.55 27.42,-51.73 7.69,-15.01 16.18,-29.6 23.66,-44.72 2.86,-5.21 6.39,-10.27 7.23,-16.3 3.95,-6.29 7.03,-13.07 10.41,-19.67 1.88,-3.51 2.6,-7.44 3.48,-11.28 -1.22,2.46 -3.06,4.5 -4.94,6.47 1.23,-0.84 2.39,-1.77 3.64,-2.57 -1.08,5.31 -3.89,10.07 -6.82,14.56 -7.09,9.32 -16.29,16.83 -26.19,23.01 -12.57,8.67 -28.4,12.34 -43.52,10.42 -9.43,-1.66 -17.88,-8.33 -21.57,-17.19 -2.58,-6.36 -0.71,-13.47 2.07,-19.43 2.34,-5.21 6.77,-9.03 9.52,-13.98 0.53,0.64 1.07,1.28 1.61,1.92 0.42,-0.56 0.84,-1.12 1.26,-1.67 -0.42,-0.69 -0.83,-1.37 -1.24,-2.06 3.75,-3.4 6.19,-8.56 11.21,-10.32 -6.37,9.82 -13.49,19.84 -15.47,31.63 -1.46,7.09 2.6,14.47 8.78,17.9 5.65,3.43 12.65,3.08 18.92,2.02 7.3,-1.22 13.75,-5.11 19.88,-9.04 7.17,-4.61 13.83,-10 19.83,-16.05 7.48,-7.78 13.16,-17.37 16.14,-27.76 1.11,-4.23 1.13,-10.24 -3.34,-12.53 -13.54,-6.93 -29.24,-3.92 -43.62,-7.43 -10.79,-2.54 -21.7,-5.86 -30.95,-12.16 -7.27,-5.22 -14.42,-11.08 -19,-18.9 -5.98,-10 -9.98,-21.03 -16,-31 -9.2,-14.35 -24.64,-24.26 -41.15,-27.97 -12.2,-2.21 -24.74,-2.38 -37.05,-1.03 -4.09,0.25 -8.18,0.13 -12.27,0.29 -0.92,-2.96 -0.5,-7.26 -3.57,-8.99 -14.17,0.06 -28.12,3.08 -42.19,4.45 3.88,-2.21 8.97,-2.95 11.92,-6.43 l 0.35,-0.52 c 15.87,-0.89 31.82,-2.23 47.68,-0.4 -2.24,-6.95 -2.37,-14.33 -3.74,-21.47 -0.59,-6.32 -1.62,-12.6 -2.26,-18.92 -1.05,-19.04 -0.65,-38.39 4,-56.98 3.25,-13.66 9.8,-27.45 21.84,-35.42 8.85,-6.23 20.19,-7.39 30.65,-5.82 8.92,1.68 17.41,5.16 25.23,9.72 20.82,12.55 39.25,28.52 57.41,44.55 3.23,3.02 6.72,5.76 9.64,9.1 0.47,2.98 -1.17,5.66 -2.23,8.33 5.6,-0.29 11.14,0.72 16.73,0.82 1.84,0.43 2.16,-1.88 2.82,-3.02 16.39,-9.52 33.19,-18.33 49.58,-27.85 C 337.88,87.53 348.21,81.39 358.9,75.88 377,65.7 395.82,56.45 415.81,50.59 Z"
       fill="#f09d1d"
       opacity="1"
       stroke="#f09d1d"
       stroke-width="0.25"
       id="path4" />
    <path
       d="m 444.93,47.24 c 4.95,-0.26 9.55,2 14.02,3.84 11.64,5.04 21.72,14.41 25.77,26.65 3.54,10.98 3.91,22.76 2.91,34.17 -1.79,23.72 -7.45,46.91 -13.55,69.83 -4.61,0.05 -8.2,-3.22 -12.56,-4.11 -3.47,-0.78 -7.08,-0.09 -10.56,-0.86 -4.65,-0.74 -8.3,-4.31 -13.04,-4.72 -2.99,0.04 -4.25,-2.98 -6.53,-4.29 -1.59,-0.48 -3.24,-0.11 -4.5,0.91 1.54,0.11 3.08,0.19 4.63,0.24 0.11,1.49 -0.41,2.97 -1.81,3.66 -2.2,1.51 -4.77,-0.36 -7.18,-0.23 -0.43,-1.69 -0.4,-3.41 0.1,-5.09 -2,-0.57 -4.29,-1.08 -6,0.48 -2.47,1.94 -5.77,1.88 -8.65,1.04 -1.03,0.37 -2.11,1.36 -3.24,0.76 -1.33,-1.27 -1.29,-3.41 -2.67,-4.6 -9.76,-2.15 -18.92,-6.49 -28.73,-8.58 4.96,2.91 5.92,9.63 11.14,12.16 9,4.46 18.88,6.58 28.58,8.88 8.18,1.58 16.57,3.63 24.92,2.3 4.38,0.09 7.7,3.88 12.1,3.97 4.26,0.42 9.32,-1.62 12.43,2.37 -6.61,-0.92 -13.33,0.27 -19.9,-0.93 -3.14,-0.75 -6.37,-0.75 -9.56,-0.58 -13.09,0.63 -26.07,-1.51 -39.06,-2.64 -12.06,-1.02 -24.03,-2.84 -35.98,-4.69 -5.83,-1.1 -11.78,-0.62 -17.68,-0.87 5.6,4.93 9.4,11.64 12.04,18.55 4.56,11.12 5.77,23.25 6.44,35.14 -0.15,1.68 1.6,2.47 2.61,3.48 9.77,7.43 17.28,18.96 17.18,31.55 0.16,16.14 -7.31,31.23 -16.65,43.97 -7.2,8.97 -15.46,17.13 -24.61,24.11 -1.72,4.1 -2.22,8.67 -4.21,12.71 5.89,-4.73 11.63,-9.65 17.15,-14.79 0.04,1.56 -0.67,2.93 -1.47,4.22 0.66,2.55 0.37,5.14 0.13,7.72 0.35,5.44 2.22,10.64 2.86,16.05 0.14,2.45 1.97,4.22 3.36,6.07 1.35,-1.15 2.7,-2.3 4.13,-3.36 0.37,0 1.13,0 1.5,0 -29.51,33.21 -60.26,65.34 -88.45,99.71 -6.08,7.37 -12.51,14.5 -17.97,22.36 1.82,-3.62 3.78,-7.16 5.71,-10.72 8.04,-14.81 13.93,-30.64 21.46,-45.7 5.74,-14.13 13.38,-27.37 19.64,-41.26 12.72,-27.33 26.7,-54.22 35.83,-83.04 5.04,-15.06 9.12,-30.52 11,-46.31 4.42,3.58 5.86,9.31 7.72,14.42 -0.06,-1.71 -0.05,-3.48 -0.87,-5.03 -2.8,-6.27 -7.3,-11.9 -12.94,-15.83 -1.31,-0.79 -1.89,-2.24 -2.55,-3.53 10.52,3.94 17.92,13.32 22.29,23.34 2.72,6.5 1.95,13.88 -0.22,20.42 -3.18,9.19 -8.66,17.46 -15.33,24.49 -3.07,3.07 -5.11,6.92 -7.07,10.74 10.4,-7.71 20.56,-16.33 27.01,-27.75 5.12,-8.58 6.86,-19.23 4.52,-28.96 -4.31,-14.13 -16.77,-25 -30.83,-28.94 -13.54,-3.75 -28.12,-5.34 -41.86,-1.62 -9.67,2.44 -18.23,8.16 -25.29,15.08 -8.2,9.14 -15.08,19.47 -20.28,30.61 0.9,0.24 2.7,0.72 3.6,0.96 13.45,3.63 27.58,-0.16 41.21,2.3 9.21,1.04 18.42,5.54 23.34,13.65 -0.01,1.25 -0.09,2.49 -0.23,3.74 -0.66,1.72 -1.59,3.32 -2.47,4.94 -1.2,-6.63 -5.21,-13.22 -11.86,-15.47 -9.93,-3.29 -20.54,-3.45 -30.89,-4.25 -15.12,-0.92 -30.39,-4.64 -43.35,-12.71 -4.72,-3.09 -9.61,-6.46 -12.44,-11.49 3.68,5.38 9.8,7.86 15.92,9.31 5.53,-6.48 8.85,-14.46 13.98,-21.23 10.1,-14 24.15,-25.6 40.76,-30.87 17.55,-5.92 36.79,-4.27 54.26,1.06 -0.23,-2.94 -1.46,-5.62 -2.98,-8.09 1.74,2.86 3.26,5.9 5.56,8.37 2.44,1.63 5.19,2.76 7.75,4.19 -0.88,-12.4 -3.94,-24.52 -7.89,-36.28 -1.79,-5.17 -4.25,-10.11 -7.19,-14.72 -3.97,-6.14 -10.27,-10.14 -16.24,-14.11 11.63,0.33 23.3,-0.95 34.9,0.5 4.98,0.32 9.87,1.8 14.88,1.7 1.87,0.01 1.88,-2.53 1.41,-3.8 -2.57,-5.08 -8.94,-7.39 -14.37,-6.57 -10.32,1.3 -20.52,3.62 -30.93,4.21 -3.72,-0.02 -8.41,-0.17 -10.15,-4.13 -6.34,-0.12 -12.68,-0.04 -19.01,0.11 1.74,6.59 0.58,13.38 -0.9,19.89 6.79,0.88 13.73,2.27 19.52,6.15 1.39,0.92 2.52,2.79 1.4,4.38 -1.68,2.78 -5.1,3.64 -7.98,4.63 -5.56,2.04 -11.33,-0.32 -17,-0.22 -6.78,-0.26 -13.56,-0.02 -20.33,0.36 -4.11,2.39 -7.2,6.16 -11.28,8.62 -7.37,-4.23 -16.09,-4.25 -24.31,-5.12 -9.87,-1.27 -19.94,-1.49 -29.79,0.08 -1.85,0.22 -3.72,0.13 -5.57,0.13 6.59,-3.8 14.26,-4.87 21.19,-7.85 8.64,-3.57 17.63,-6.93 27.1,-7.08 8.71,-0.17 17.42,-0.57 26.09,-1.38 5.59,-0.81 11.75,-1.99 15.72,-6.39 3.34,-3.46 4.87,-8.64 3.63,-13.32 -0.53,-1.86 -2.45,-2.76 -4.27,-2.65 -7.72,-0.26 -15.42,0.75 -23.04,1.92 -2.54,0.57 -5.52,0.93 -7.21,3.15 -0.94,1.71 -0.13,3.66 0.17,5.42 2.79,-0.96 4.16,-3.38 3.36,-6.25 4.22,-0.03 3.83,4.91 3.34,7.88 -0.43,3.45 -4.22,6.41 -7.65,5.18 -3.87,-2.73 -2.22,-8.14 -1.37,-12 -0.54,0.83 -1.08,1.65 -1.61,2.48 -12.55,0.12 -25.46,1.79 -36.61,7.92 -10.46,6.32 -18.69,15.7 -29.29,21.84 -2.53,1.46 -5.56,1.39 -8.38,1.75 -2.21,0.04 -4.59,-0.92 -6.65,0.22 l -0.31,0.42 c -0.6,-2.13 -0.51,-5.39 1.97,-6.25 5.13,-2.56 10.46,-5.03 14.65,-9.04 4.15,-3.96 8.83,-7.31 13.65,-10.39 9.82,-5.94 21.21,-8.27 32.09,-11.47 2.52,-7.53 8.84,-13.9 16.76,-15.49 -3.54,4.32 -7.67,8.28 -9.91,13.5 9.39,-2.29 18.82,-4.47 28.32,-6.27 7.73,-1.17 15.68,-1.49 23.44,-0.44 6.97,1.98 13.95,4.02 21.06,5.47 14.49,0.04 28.59,-4.57 43.07,-4.91 17.97,-0.53 33.54,10.58 51.07,12.49 7.25,1.24 14.61,-0.2 21.87,0.63 3.7,1.24 5.25,5.2 7.73,7.88 1.43,1.06 3.17,1.52 4.8,2.2 3.37,1.2 7,1.15 10.5,1.8 3.51,0.65 6.87,1.93 10.18,3.23 0.44,-7.26 2.37,-14.31 3.47,-21.48 4.39,-22.71 6.78,-46.09 3.69,-69.12 -1.63,-10.97 -4.8,-22.44 -12.79,-30.55 -5.11,-4.93 -11.15,-9.78 -18.54,-10.24 z"
       fill="#011431"
       opacity="1"
       stroke="#011431"
       stroke-width="0.25"
       id="path6" />
    <path
       d="m 136.46,75.5 c 7.54,-8.65 20.12,-11.36 31.01,-8.67 10.98,2.74 21.35,7.74 30.9,13.75 15.39,10.35 29.61,22.28 43.54,34.48 3.84,3.52 7.74,7.31 9.8,12.2 0.74,3.41 0.87,7.11 3.09,10 -2.56,-1.78 -4.53,-4.21 -6.61,-6.5 -8.36,-8.92 -17.3,-17.29 -26.74,-25.06 -10.69,-8.95 -22.15,-17.52 -35.46,-22.13 -9.02,-3.22 -19.82,-3.16 -27.79,2.66 -8.56,6.72 -13.55,16.96 -16.62,27.19 -6.87,25.27 -7.28,51.89 -4.03,77.74 -3.35,-0.45 -6.7,-0.85 -10.02,-1.42 -3.49,-23.74 -6.85,-47.67 -5.93,-71.72 0.97,-15.09 4.27,-31.07 14.86,-42.52 z"
       fill="#011431"
       opacity="1"
       stroke="#011431"
       stroke-width="0.25"
       id="path8" />
    <path
       d="m 371.4,85.32 c 14.4,-6.92 29.44,-13.56 45.58,-14.77 8.6,-0.71 17.6,0.82 24.92,5.58 8.25,5.69 13.58,14.91 15.3,24.71 -2.43,-8.21 -9.87,-14.29 -18.3,-15.43 -22.6,-3.96 -44.96,4.04 -65.39,12.96 -23.11,9.98 -44.62,23.14 -66.29,35.84 -5.4,2.81 -9.77,7.05 -14.12,11.22 -3.53,-2.42 -7.54,-3.96 -11.46,-5.61 l -0.37,-0.92 c 8.76,-6.12 17.13,-12.86 26.49,-18.08 10.24,-5.66 19.78,-12.5 30.24,-17.76 11.12,-5.94 21.86,-12.61 33.4,-17.74 z"
       fill="#011431"
       opacity="1"
       stroke="#011431"
       stroke-width="0.25"
       id="path10" />
    <path
       d="m 158.2,86.23 c 7.97,-5.82 18.77,-5.88 27.79,-2.66 13.31,4.61 24.77,13.18 35.46,22.13 9.44,7.77 18.38,16.14 26.74,25.06 2.08,2.29 4.05,4.72 6.61,6.5 2.09,1.09 4.07,3.53 2.17,5.79 -7.92,1.59 -14.24,7.96 -16.76,15.49 -10.88,3.2 -22.27,5.53 -32.09,11.47 -4.82,3.08 -9.5,6.43 -13.65,10.39 -4.19,4.01 -9.52,6.48 -14.65,9.04 -2.48,0.86 -2.57,4.12 -1.97,6.25 0.92,2.51 3.74,3.75 6.15,4.43 5.41,-0.26 10.57,-2.29 16,-2.46 2.96,-0.08 6.26,-0.4 8.68,1.67 -2.87,3.86 -6.61,6.97 -9.65,10.68 -0.06,0.66 -0.19,1.99 -0.26,2.65 5.89,-2.64 9.65,-8.3 14.84,-11.98 3.02,-2.72 7.37,-2.12 11.08,-3.01 -2.6,4.96 -7.21,8.97 -8.09,14.73 2.01,-1.18 3.7,-2.79 5.33,-4.43 3.81,-3.81 8.3,-6.89 13.14,-9.24 3,-0.15 6,0.22 8.98,0.57 l -0.72,1.35 c -2.56,3.48 -5.76,6.88 -6.15,11.41 4.64,-2.55 7.69,-7.21 12.44,-9.64 -0.57,3.56 1.1,7 3.11,9.84 3.07,4.25 6.63,8.11 10.26,11.88 3.99,-3.63 8.22,-7.09 11.77,-11.17 -0.1,-7.41 -0.73,-14.83 -0.17,-22.25 6.77,-0.38 13.55,-0.62 20.33,-0.36 6.4,0.7 12.9,1.33 18.99,3.58 11.23,3.95 21.31,11.72 27.25,22.12 1.52,2.47 2.75,5.15 2.98,8.09 -17.47,-5.33 -36.71,-6.98 -54.26,-1.06 -16.61,5.27 -30.66,16.87 -40.76,30.87 -5.13,6.77 -8.45,14.75 -13.98,21.23 -6.12,-1.45 -12.24,-3.93 -15.92,-9.31 -4.34,-5.82 -9.12,-11.47 -11.68,-18.37 -3.73,-9.98 -7.48,-20.31 -14.64,-28.43 -4.86,-6.19 -10.71,-11.65 -17.72,-15.32 -11.33,-7.17 -24.57,-10.34 -37.63,-12.6 -3.25,-25.85 -2.84,-52.47 4.03,-77.74 3.07,-10.23 8.06,-20.47 16.62,-27.19 z"
       fill="#ffffff"
       opacity="1"
       stroke="#ffffff"
       stroke-width="0.25"
       id="path12" />
    <path
       d="m 373.51,98.37 c 20.43,-8.92 42.79,-16.92 65.39,-12.96 8.43,1.14 15.87,7.22 18.3,15.43 1.74,5.21 1.47,10.75 1.42,16.16 -0.36,17.52 -4.78,34.57 -8.33,51.63 -0.41,1.73 -1.14,3.36 -1.87,4.97 -1.63,-0.68 -3.37,-1.14 -4.8,-2.2 -2.48,-2.68 -4.03,-6.64 -7.73,-7.88 -7.26,-0.83 -14.62,0.61 -21.87,-0.63 -17.53,-1.91 -33.1,-13.02 -51.07,-12.49 -14.48,0.34 -28.58,4.95 -43.07,4.91 -7.11,-1.45 -14.09,-3.49 -21.06,-5.47 -7.76,-1.05 -15.71,-0.73 -23.44,0.44 -0.09,-3.68 -0.07,-7.37 0.23,-11.04 2.01,0.14 4.03,0.27 6.03,0.58 3.92,1.65 7.93,3.19 11.46,5.61 4.35,-4.17 8.72,-8.41 14.12,-11.22 21.67,-12.7 43.18,-25.86 66.29,-35.84 z"
       fill="#ffffff"
       opacity="1"
       stroke="#ffffff"
       stroke-width="0.25"
       id="path14" />
    <path
       d="m 260.52,115.17 c 1.55,1.82 2.63,4.64 5.41,4.75 3.89,0.96 7.93,1 11.91,1.38 -0.66,1.14 -0.98,3.45 -2.82,3.02 -5.59,-0.1 -11.13,-1.11 -16.73,-0.82 1.06,-2.67 2.7,-5.35 2.23,-8.33 z"
       fill="#011431"
       opacity="1"
       stroke="#011431"
       stroke-width="0.25"
       id="path16" />
    <path
       d="m 329.04,159.55 c 10.41,-0.59 20.61,-2.91 30.93,-4.21 5.43,-0.82 11.8,1.49 14.37,6.57 0.47,1.27 0.46,3.81 -1.41,3.8 -5.01,0.1 -9.9,-1.38 -14.88,-1.7 -11.6,-1.45 -23.27,-0.17 -34.9,-0.5 5.97,3.97 12.27,7.97 16.24,14.11 2.94,4.61 5.4,9.55 7.19,14.72 3.95,11.76 7.01,23.88 7.89,36.28 -2.56,-1.43 -5.31,-2.56 -7.75,-4.19 -2.3,-2.47 -3.82,-5.51 -5.56,-8.37 -5.94,-10.4 -16.02,-18.17 -27.25,-22.12 -6.09,-2.25 -12.59,-2.88 -18.99,-3.58 5.67,-0.1 11.44,2.26 17,0.22 2.88,-0.99 6.3,-1.85 7.98,-4.63 1.12,-1.59 -0.01,-3.46 -1.4,-4.38 -5.79,-3.88 -12.73,-5.27 -19.52,-6.15 1.48,-6.51 2.64,-13.3 0.9,-19.89 6.33,-0.15 12.67,-0.23 19.01,-0.11 1.74,3.96 6.43,4.11 10.15,4.13 z"
       fill="#f09d1d"
       opacity="1"
       stroke="#f09d1d"
       stroke-width="0.25"
       id="path18" />
    <path
       d="m 270.06,157.68 c 7.62,-1.17 15.32,-2.18 23.04,-1.92 1.82,-0.11 3.74,0.79 4.27,2.65 1.24,4.68 -0.29,9.86 -3.63,13.32 -3.97,4.4 -10.13,5.58 -15.72,6.39 -8.67,0.81 -17.38,1.21 -26.09,1.38 -9.47,0.15 -18.46,3.51 -27.1,7.08 -6.93,2.98 -14.6,4.05 -21.19,7.85 -6.17,1.5 -12.56,1.06 -18.83,0.62 2.82,-0.36 5.85,-0.29 8.38,-1.75 10.6,-6.14 18.83,-15.52 29.29,-21.84 11.15,-6.13 24.06,-7.8 36.61,-7.92 0.53,-0.83 1.07,-1.65 1.61,-2.48 -0.85,3.86 -2.5,9.27 1.37,12 3.43,1.23 7.22,-1.73 7.65,-5.18 0.49,-2.97 0.88,-7.91 -3.34,-7.88 0.8,2.87 -0.57,5.29 -3.36,6.25 -0.3,-1.76 -1.11,-3.71 -0.17,-5.42 1.69,-2.22 4.67,-2.58 7.21,-3.15 z"
       fill="#ffffff"
       opacity="1"
       stroke="#ffffff"
       stroke-width="0.25"
       id="path20" />
    <path
       d="m 408.08,165.28 c 0.92,-0.97 3.42,0.12 2.53,1.49 -0.94,0.99 -3.66,-0.05 -2.53,-1.49 z"
       fill="#013974"
       opacity="1"
       stroke="#013974"
       stroke-width="0.25"
       id="path22" />
    <path
       d="m 340.33,176.31 c 5.9,0.25 11.85,-0.23 17.68,0.87 11.95,1.85 23.92,3.67 35.98,4.69 12.99,1.13 25.97,3.27 39.06,2.64 3.19,-0.17 6.42,-0.17 9.56,0.58 -7.78,25.19 -19.52,48.99 -32.42,71.91 -15.72,27.8 -37.05,51.93 -59.91,74.03 -5.52,5.14 -11.26,10.06 -17.15,14.79 1.99,-4.04 2.49,-8.61 4.21,-12.71 9.15,-6.98 17.41,-15.14 24.61,-24.11 9.34,-12.74 16.81,-27.83 16.65,-43.97 0.1,-12.59 -7.41,-24.12 -17.18,-31.55 -1.01,-1.01 -2.76,-1.8 -2.61,-3.48 -0.67,-11.89 -1.88,-24.02 -6.44,-35.14 -2.64,-6.91 -6.44,-13.62 -12.04,-18.55 z"
       fill="#ffffff"
       opacity="1"
       stroke="#ffffff"
       stroke-width="0.25"
       id="path24" />
    <path
       d="m 471.72,186 c -1.75,-1.44 -5.94,-1.62 -5.37,-4.65 2.11,0.86 4.27,1.59 6.46,2.2 0.11,4.24 -2.23,7.85 -3.13,11.88 -4.71,13.84 -10.45,27.36 -16.85,40.5 0.54,-3.34 1.08,-6.69 2.24,-9.88 3.82,-10.54 6.57,-21.42 9.88,-32.12 0.71,-2.09 0.81,-4.3 0.84,-6.49 1.95,0.25 3.63,1.31 5.32,2.25 0.17,-1.23 0.37,-2.46 0.61,-3.69 z"
       fill="#011431"
       opacity="1"
       stroke="#011431"
       stroke-width="0.25"
       id="path26" />
    <path
       d="m 442.61,185.09 c 6.57,1.2 13.29,0.01 19.9,0.93 1.12,0.3 2.19,0.73 3.29,1.12 l -0.01,0.3 c -0.03,2.19 -0.13,4.4 -0.84,6.49 -3.31,10.7 -6.06,21.58 -9.88,32.12 -1.16,3.19 -1.7,6.54 -2.24,9.88 -6.63,14.98 -14.52,29.49 -24.08,42.83 -20.23,29.52 -43.77,56.55 -67.82,82.97 h -0.14 c -0.37,0 -1.13,0 -1.5,0 -1.43,1.06 -2.78,2.21 -4.13,3.36 -1.39,-1.85 -3.22,-3.62 -3.36,-6.07 -0.64,-5.41 -2.51,-10.61 -2.86,-16.05 0.24,-2.58 0.53,-5.17 -0.13,-7.72 0.8,-1.29 1.51,-2.66 1.47,-4.22 22.86,-22.1 44.19,-46.23 59.91,-74.03 12.9,-22.92 24.64,-46.72 32.42,-71.91 z"
       fill="#013974"
       opacity="1"
       stroke="#013974"
       stroke-width="0.25"
       id="path28" />
    <path
       d="m 263.31,199.34 c 4.08,-2.46 7.17,-6.23 11.28,-8.62 -0.56,7.42 0.07,14.84 0.17,22.25 -3.55,4.08 -7.78,7.54 -11.77,11.17 -3.63,-3.77 -7.19,-7.63 -10.26,-11.88 -2.01,-2.84 -3.68,-6.28 -3.11,-9.84 1.52,-1.07 5.75,-1 4.56,-3.75 -3.7,-0.46 -8.52,-1.91 -10.85,1.98 l 0.72,-1.35 c -2.98,-0.35 -5.98,-0.72 -8.98,-0.57 3.41,-0.8 6.95,-0.03 10.41,-0.5 -5.18,-2.1 -10.93,-2.03 -16.42,-2.62 -6.58,1.1 -13.46,0.7 -19.79,3.06 -0.15,0.16 -0.44,0.49 -0.59,0.66 -2.42,-2.07 -5.72,-1.75 -8.68,-1.67 -5.43,0.17 -10.59,2.2 -16,2.46 -2.41,-0.68 -5.23,-1.92 -6.15,-4.43 l 0.31,-0.42 c 2.06,-1.14 4.44,-0.18 6.65,-0.22 6.27,0.44 12.66,0.88 18.83,-0.62 1.85,0 3.72,0.09 5.57,-0.13 9.85,-1.57 19.92,-1.35 29.79,-0.08 8.22,0.87 16.94,0.89 24.31,5.12 z"
       fill="#f09d1d"
       opacity="1"
       stroke="#f09d1d"
       stroke-width="0.25"
       id="path30" />
    <path
       d="m 43,197.36 c 8.92,-1.95 17.4,-6.34 26.72,-6.03 -2.95,3.48 -8.04,4.22 -11.92,6.43 14.07,-1.37 28.02,-4.39 42.19,-4.45 3.07,1.73 2.65,6.03 3.57,8.99 4.09,-0.16 8.18,-0.04 12.27,-0.29 12.31,-1.35 24.85,-1.18 37.05,1.03 16.51,3.71 31.95,13.62 41.15,27.97 6.02,9.97 10.02,21 16,31 4.58,7.82 11.73,13.68 19,18.9 9.25,6.3 20.16,9.62 30.95,12.16 14.38,3.51 30.08,0.5 43.62,7.43 4.47,2.29 4.45,8.3 3.34,12.53 -2.98,10.39 -8.66,19.98 -16.14,27.76 -6,6.05 -12.66,11.44 -19.83,16.05 -6.13,3.93 -12.58,7.82 -19.88,9.04 -6.27,1.06 -13.27,1.41 -18.92,-2.02 -6.18,-3.43 -10.24,-10.81 -8.78,-17.9 1.98,-11.79 9.1,-21.81 15.47,-31.63 -5.02,1.76 -7.46,6.92 -11.21,10.32 0.41,0.69 0.82,1.37 1.24,2.06 -0.42,0.55 -0.84,1.11 -1.26,1.67 -0.54,-0.64 -1.08,-1.28 -1.61,-1.92 -2.75,4.95 -7.18,8.77 -9.52,13.98 -2.78,5.96 -4.65,13.07 -2.07,19.43 3.69,8.86 12.14,15.53 21.57,17.19 15.12,1.92 30.95,-1.75 43.52,-10.42 9.9,-6.18 19.1,-13.69 26.19,-23.01 2.93,-4.49 5.74,-9.25 6.82,-14.56 -1.25,0.8 -2.41,1.73 -3.64,2.57 1.88,-1.97 3.72,-4.01 4.94,-6.47 -0.88,3.84 -1.6,7.77 -3.48,11.28 -3.38,6.6 -6.46,13.38 -10.41,19.67 -1.94,3.25 -5.16,5.38 -8.02,7.74 -13.64,10.72 -30.23,18.82 -47.92,18.66 -9.63,0.46 -19.21,-2.03 -27.65,-6.6 -1.99,21.06 -5.55,41.96 -6.92,63.08 0.46,3.08 -3.39,2.8 -5.03,4.46 -2.14,1.53 -2.27,4.33 -3.52,6.45 -0.3,-1.3 -0.54,-2.64 -1.31,-3.75 0.35,0.15 1.05,0.43 1.4,0.58 2.05,-3.95 3.14,-8.31 3.24,-12.75 0.6,-18.96 -0.09,-37.94 0.42,-56.9 0.53,-6.7 0.78,-13.46 2.15,-20.06 1.38,-7.37 4.13,-14.38 7,-21.28 3.25,-7.98 8.41,-14.95 12.37,-22.57 5.23,-0.06 10.5,0.64 15.71,-0.17 -3.76,4.7 -6.51,10.1 -9.13,15.5 -3.39,7.02 -6.08,14.63 -6.03,22.52 0.07,5.13 2.85,10.73 8.24,11.91 7.82,1.74 16.49,1.41 23.69,-2.4 10.95,-5.41 21.06,-12.61 29.49,-21.46 6.61,-7.21 12.84,-15.53 14.43,-25.44 -2.97,-0.42 -5.93,-0.88 -8.91,-1.19 -4.79,-1.14 -9.72,-0.72 -14.59,-0.78 -12.06,-0.02 -24.22,0.17 -36.11,-2.14 -7.66,-0.94 -14.78,-3.96 -21.96,-6.6 -3.03,3.34 -5.97,6.77 -9.21,9.92 2.33,-3.88 4.57,-7.89 7.92,-11 -0.35,-0.18 -1.04,-0.55 -1.39,-0.74 -8.73,-6.57 -17.33,-13.58 -24.09,-22.25 -7.79,-9.82 -12.5,-21.55 -18.79,-32.29 -4.2,-7.26 -10.7,-12.82 -17.49,-17.58 -9.07,-5.99 -20.28,-7.08 -30.84,-7.95 -7.45,-0.81 -14.94,0.16 -22.4,-0.3 -0.08,0.22 -0.24,0.66 -0.31,0.88 l -0.04,0.1 c -4.22,-0.69 -8.5,0.02 -12.75,-0.1 -5.58,-0.02 -11.27,0.52 -16.75,-0.82 -4.83,-1.07 -8.8,-4.57 -13.82,-5.02 -8.05,-0.93 -16.22,-0.75 -24.24,0.38 -2.28,0.48 -4.47,-0.23 -6.54,-1.09 3.54,1.14 7.17,-0.02 10.64,-0.79 6.88,-1.69 14.03,-2.21 21.08,-1.5 5,0.68 9.92,2.27 15.02,2.01 5.27,0.19 10.22,-1.88 14.83,-4.21 3.13,-1.61 6.1,-3.74 8.13,-6.66 1.46,-2.24 0.75,-5.05 0.47,-7.52 -4.82,0.05 -9.59,0.79 -14.39,1.09 -2.06,0.2 -4.28,0.24 -6.09,1.37 -0.6,1.02 -1.76,4.18 0.19,4.02 2.35,0.58 1.97,-2.42 2.68,-3.8 2.55,2.08 1.95,6.32 -0.57,8.19 -2.22,1.01 -5.42,0.74 -6.56,-1.73 -1.63,-3.31 1.37,-6.16 3.07,-8.69 -5.24,1.57 -10.08,4.77 -15.69,4.78 -6.84,0.33 -13.41,2.37 -20.01,3.98 -8.42,2.03 -16.77,5.27 -25.57,4.68 0.88,4.89 5.9,6.63 9.53,9.11 -3.54,-0.81 -7.44,-1.64 -9.96,-4.49 -2.01,-2.18 -2.11,-5.41 -1.57,-8.17 9.61,-1.77 18,-7.3 27.53,-9.38 z"
       fill="#011431"
       opacity="1"
       stroke="#011431"
       stroke-width="0.25"
       id="path32" />
    <path
       d="m 209.27,198.67 c 6.33,-2.36 13.21,-1.96 19.79,-3.06 5.49,0.59 11.24,0.52 16.42,2.62 -3.46,0.47 -7,-0.3 -10.41,0.5 -4.84,2.35 -9.33,5.43 -13.14,9.24 -1.63,1.64 -3.32,3.25 -5.33,4.43 0.88,-5.76 5.49,-9.77 8.09,-14.73 -3.71,0.89 -8.06,0.29 -11.08,3.01 -5.19,3.68 -8.95,9.34 -14.84,11.98 0.07,-0.66 0.2,-1.99 0.26,-2.65 3.04,-3.71 6.78,-6.82 9.65,-10.68 0.15,-0.17 0.44,-0.5 0.59,-0.66 z"
       fill="#011431"
       opacity="1"
       stroke="#011431"
       stroke-width="0.25"
       id="path34" />
    <path
       d="m 63.05,201.63 c 5.61,-0.01 10.45,-3.21 15.69,-4.78 -1.7,2.53 -4.7,5.38 -3.07,8.69 1.14,2.47 4.34,2.74 6.56,1.73 2.52,-1.87 3.12,-6.11 0.57,-8.19 -0.71,1.38 -0.33,4.38 -2.68,3.8 -1.95,0.16 -0.79,-3 -0.19,-4.02 1.81,-1.13 4.03,-1.17 6.09,-1.37 4.8,-0.3 9.57,-1.04 14.39,-1.09 0.28,2.47 0.99,5.28 -0.47,7.52 -2.03,2.92 -5,5.05 -8.13,6.66 -4.61,2.33 -9.56,4.4 -14.83,4.21 -5.1,0.26 -10.02,-1.33 -15.02,-2.01 -7.05,-0.71 -14.2,-0.19 -21.08,1.5 -3.47,0.77 -7.1,1.93 -10.64,0.79 -4.48,-1.05 -8.6,-2.93 -12.77,-4.78 8.8,0.59 17.15,-2.65 25.57,-4.68 6.6,-1.61 13.17,-3.65 20.01,-3.98 z"
       fill="#ffffff"
       opacity="1"
       stroke="#ffffff"
       stroke-width="0.25"
       id="path36" />
    <path
       d="m 243.33,200.65 c 2.33,-3.89 7.15,-2.44 10.85,-1.98 1.19,2.75 -3.04,2.68 -4.56,3.75 -4.75,2.43 -7.8,7.09 -12.44,9.64 0.39,-4.53 3.59,-7.93 6.15,-11.41 z"
       fill="#011431"
       opacity="1"
       stroke="#011431"
       stroke-width="0.25"
       id="path38" />
    <path
       d="m 105.29,206.55 c 4.15,-1.43 8.65,-0.97 12.97,-1.35 -2.27,3.48 -5,7.13 -9.22,8.28 -5.75,2.18 -11.94,1.95 -17.97,2.17 5.32,-1.98 9.97,-5.39 14.22,-9.1 z"
       fill="#f09d1d"
       opacity="1"
       stroke="#f09d1d"
       stroke-width="0.25"
       id="path40" />
    <path
       d="m 119.33,212.39 c -0.1,-2.98 2.49,-5.32 4.6,-7.05 7.66,-1.06 15.41,-0.31 23.09,0.02 8.42,0.9 16.46,4.03 23.99,7.8 9.39,4.67 17.46,12.28 21.94,21.83 5.11,9.63 9.08,19.87 14.82,29.17 8.55,11.96 20.3,21.93 34.17,27.1 9.61,2.48 18.98,6.61 29.09,6.48 10.39,1.22 21.4,0.31 30.95,5.34 2.02,1.34 1.26,4.13 1.28,6.17 -14.03,-1.11 -28.13,-0.17 -42.18,-0.78 -13.33,-2.25 -27.04,-4.29 -39.1,-10.77 -10.96,-6.54 -20.71,-15.42 -27.2,-26.49 -6.59,-10.56 -11.17,-22.29 -18.53,-32.39 -7.5,-9.36 -17.74,-16.6 -29.22,-20.17 -8.95,-3.15 -18.39,-4.6 -27.7,-6.26 z"
       fill="#013974"
       opacity="1"
       stroke="#013974"
       stroke-width="0.25"
       id="path42" />
    <path
       d="m 17.47,210.29 c 4.17,1.85 8.29,3.73 12.77,4.78 2.07,0.86 4.26,1.57 6.54,1.09 8.02,-1.13 16.19,-1.31 24.24,-0.38 5.02,0.45 8.99,3.95 13.82,5.02 5.48,1.34 11.17,0.8 16.75,0.82 l -0.05,0.53 c -3.81,-0.13 -7.64,0.17 -11.43,-0.33 -4.45,-0.39 -8.79,-2.32 -13.3,-1.25 l -0.18,-1.09 c -5.14,-0.52 -10.34,-1.88 -15.5,-1.3 -2.34,0.72 -4.67,1.63 -7.18,1.43 -5.65,-0.18 -11.4,1.49 -16.95,-0.21 -3.63,-2.48 -8.65,-4.22 -9.53,-9.11 z"
       fill="#f09d1d"
       opacity="1"
       stroke="#f09d1d"
       stroke-width="0.25"
       id="path44" />
    <path
       d="m 51.13,218.18 c 5.16,-0.58 10.36,0.78 15.5,1.3 l 0.18,1.09 c -2.95,2 -4.61,5.48 -7.87,7.05 -0.95,-2.97 0.4,-5.71 2,-8.13 -2.5,0.31 -5.27,-0.26 -7.57,1 -2.6,2.02 -4.5,4.77 -6.62,7.26 -1.45,-3.57 0.58,-8.49 4.38,-9.57 z"
       fill="#011431"
       opacity="1"
       stroke="#011431"
       stroke-width="0.25"
       id="path46" />
    <path
       d="m 104.69,220.74 c 7.46,0.46 14.95,-0.51 22.4,0.3 10.56,0.87 21.77,1.96 30.84,7.95 6.79,4.76 13.29,10.32 17.49,17.58 6.29,10.74 11,22.47 18.79,32.29 6.76,8.67 15.36,15.68 24.09,22.25 -4.56,-2.05 -8.67,-4.95 -12.84,-7.68 -10.67,-7.48 -18.25,-18.45 -23.75,-30.1 -6.14,-12.93 -13.81,-26.08 -26.4,-33.67 -5.59,-2.72 -11.69,-4.57 -17.86,-5.33 -6.5,-2.18 -13.48,-2.53 -20.28,-2.91 l 0.57,1.22 c -0.42,-0.28 -1.26,-0.85 -1.68,-1.14 -3.89,-0.37 -7.83,-0.39 -11.68,0.12 0.07,-0.22 0.23,-0.66 0.31,-0.88 z"
       fill="#f09d1d"
       opacity="1"
       stroke="#f09d1d"
       stroke-width="0.25"
       id="path48" />
    <path
       d="m 117.17,221.42 c 6.8,0.38 13.78,0.73 20.28,2.91 7.19,19.29 15.25,38.29 24.44,56.73 9.87,19.83 22.74,37.96 35.78,55.79 -2.17,9.29 -4.27,18.74 -3.45,28.36 -4.39,-4.38 -6.92,-10.2 -10.62,-15.12 -13.3,-18.14 -25.61,-37.06 -35.99,-57.03 -11.54,-22.76 -21.06,-46.5 -29.87,-70.42 z"
       fill="#011431"
       opacity="1"
       stroke="#011431"
       stroke-width="0.25"
       id="path50" />
    <path
       d="m 297.96,223.94 c 15.51,-3.68 31.68,-1.11 46.88,2.82 13.01,3.26 23.6,13.24 29.07,25.32 2.94,6.21 1.95,13.33 1.59,19.96 -1.58,-0.85 -1.44,-2.92 -2.05,-4.38 -3.31,-12.39 -12.97,-22.25 -24.15,-27.99 -13.22,-5.75 -27.89,-9.27 -42.35,-7.57 -11.96,1.18 -22.42,7.9 -31.79,14.95 -10.49,9.59 -18.69,21.67 -24.33,34.68 -2.67,1.52 -5.61,-0.51 -8.21,-1.26 -1.74,-0.89 -4.15,-1.06 -5.34,-2.7 6.64,-10.08 13.4,-20.15 21.33,-29.29 10.51,-11.57 23.92,-21.06 39.35,-24.54 z"
       fill="#013974"
       opacity="1"
       stroke="#013974"
       stroke-width="0.25"
       id="path52" />
    <path
       d="m 137.45,224.33 c 6.17,0.76 12.27,2.61 17.86,5.33 12.59,7.59 20.26,20.74 26.4,33.67 5.5,11.65 13.08,22.62 23.75,30.1 4.17,2.73 8.28,5.63 12.84,7.68 0.35,0.19 1.04,0.56 1.39,0.74 -3.35,3.11 -5.59,7.12 -7.92,11 -4.99,7.82 -9.31,16.05 -14.1,24 -13.04,-17.83 -25.91,-35.96 -35.78,-55.79 -9.19,-18.44 -17.25,-37.44 -24.44,-56.73 z"
       fill="#ffffff"
       opacity="1"
       stroke="#ffffff"
       stroke-width="0.25"
       id="path54" />
    <path
       d="m 297.88,238.52 c 13.74,-3.72 28.32,-2.13 41.86,1.62 14.06,3.94 26.52,14.81 30.83,28.94 2.34,9.73 0.6,20.38 -4.52,28.96 -6.45,11.42 -16.61,20.04 -27.01,27.75 1.96,-3.82 4,-7.67 7.07,-10.74 6.67,-7.03 12.15,-15.3 15.33,-24.49 2.17,-6.54 2.94,-13.92 0.22,-20.42 -4.37,-10.02 -11.77,-19.4 -22.29,-23.34 -10.08,-4.69 -21.35,-6.51 -32.4,-6.29 -13.93,0.3 -27.35,7.74 -35.43,19.01 -5.73,8.21 -11.45,16.5 -15.63,25.65 -0.9,-0.24 -2.7,-0.72 -3.6,-0.96 5.2,-11.14 12.08,-21.47 20.28,-30.61 7.06,-6.92 15.62,-12.64 25.29,-15.08 z"
       fill="#f09d1d"
       opacity="1"
       stroke="#f09d1d"
       stroke-width="0.25"
       id="path56" />
    <path
       d="m 271.54,259.52 c 8.08,-11.27 21.5,-18.71 35.43,-19.01 11.05,-0.22 22.32,1.6 32.4,6.29 0.66,1.29 1.24,2.74 2.55,3.53 -0.41,0.15 -1.24,0.44 -1.65,0.58 -3.9,11.48 -7.76,22.98 -12.14,34.29 -2.66,6.54 -5.75,12.92 -7.9,19.66 0.14,-1.25 0.22,-2.49 0.23,-3.74 -4.92,-8.11 -14.13,-12.61 -23.34,-13.65 -13.63,-2.46 -27.76,1.33 -41.21,-2.3 4.18,-9.15 9.9,-17.44 15.63,-25.65 z"
       fill="#ffffff"
       opacity="1"
       stroke="#ffffff"
       stroke-width="0.25"
       id="path58" />
    <path
       d="m 354.82,275.99 c 0.22,-1.3 0.77,-2.5 1.23,-3.71 1.91,6.67 3.09,13.95 0.65,20.66 -2.51,7.32 -8.41,12.61 -12.5,18.98 5.12,-11.41 8.96,-23.5 10.62,-35.93 z"
       fill="#f09d1d"
       opacity="1"
       stroke="#f09d1d"
       stroke-width="0.25"
       id="path60" />
    <path
       d="m 211.77,312.85 c 3.24,-3.15 6.18,-6.58 9.21,-9.92 7.18,2.64 14.3,5.66 21.96,6.6 11.89,2.31 24.05,2.12 36.11,2.14 4.87,0.06 9.8,-0.36 14.59,0.78 -5.88,0.49 -11.79,0.02 -17.67,0.57 -11.36,0.8 -22.79,-1.25 -34.11,-0.01 -5.21,0.81 -10.48,0.11 -15.71,0.17 -3.96,7.62 -9.12,14.59 -12.37,22.57 -2.87,6.9 -5.62,13.91 -7,21.28 -1.37,6.6 -1.62,13.36 -2.15,20.06 -0.51,18.96 0.18,37.94 -0.42,56.9 -0.1,4.44 -1.19,8.8 -3.24,12.75 -0.35,-0.15 -1.05,-0.43 -1.4,-0.58 -2.11,-1.78 -4.33,-3.67 -5.67,-6.12 -0.5,-4.99 -0.03,-10.03 -0.16,-15.03 0.55,-19.93 0.77,-39.87 0.48,-59.8 -0.82,-9.62 1.28,-19.07 3.45,-28.36 4.79,-7.95 9.11,-16.18 14.1,-24 z"
       fill="#f09d1d"
       opacity="1"
       stroke="#f09d1d"
       stroke-width="0.25"
       id="path62" />
    <path
       d="m 241.86,313.01 c 11.32,-1.24 22.75,0.81 34.11,0.01 5.88,-0.55 11.79,-0.08 17.67,-0.57 2.98,0.31 5.94,0.77 8.91,1.19 -1.59,9.91 -7.82,18.23 -14.43,25.44 -8.43,8.85 -18.54,16.05 -29.49,21.46 -7.2,3.81 -15.87,4.14 -23.69,2.4 -5.39,-1.18 -8.17,-6.78 -8.24,-11.91 -0.05,-7.89 2.64,-15.5 6.03,-22.52 2.62,-5.4 5.37,-10.8 9.13,-15.5 z"
       fill="#ffffff"
       opacity="1"
       stroke="#ffffff"
       stroke-width="0.25"
       id="path64" />
    <path
       d="m 225.77,330.1 c -1.21,4.2 -3.82,7.9 -4.63,12.27 -1.12,6.08 -2.64,12.66 -0.13,18.61 2.22,5.65 8.28,8.67 14,9.42 8.05,0.84 16.23,-0.24 23.98,-2.45 12.46,-4.43 24.03,-11.38 33.69,-20.41 4.87,-3.85 8.61,-8.86 13.16,-13.06 -6.28,7.73 -12.9,15.2 -20.38,21.8 -9.76,7.53 -20.97,13.89 -33.38,15.43 -8.68,1.2 -18.13,1.39 -26.04,-2.9 -5.04,-2.67 -8.4,-8.05 -8.41,-13.78 -0.08,-8.93 3.82,-17.31 8.14,-24.93 z"
       fill="#011431"
       opacity="1"
       stroke="#011431"
       stroke-width="0.25"
       id="path66" />
  </g>
</svg>
