<?xml version="1.0" encoding="UTF-8" standalone="no"?>
<svg
   height="512pt"
   version="1.1"
   viewBox="0 0 512 512"
   width="512pt"
   id="svg68"
   sodipodi:docname="pynoplialg.svg"
   inkscape:version="1.1.2 (0a00cf5339, 2022-02-04)"
   xmlns:inkscape="http://www.inkscape.org/namespaces/inkscape"
   xmlns:sodipodi="http://sodipodi.sourceforge.net/DTD/sodipodi-0.dtd"
   xmlns="http://www.w3.org/2000/svg"
   xmlns:svg="http://www.w3.org/2000/svg">
  <defs
     id="defs72" />
  <sodipodi:namedview
     id="namedview70"
     pagecolor="#ffffff"
     bordercolor="#666666"
     borderopacity="1.0"
     inkscape:pageshadow="2"
     inkscape:pageopacity="0.0"
     inkscape:pagecheckerboard="0"
     inkscape:document-units="pt"
     showgrid="false"
     inkscape:zoom="1.1455078"
     inkscape:cx="340.89685"
     inkscape:cy="341.76982"
     inkscape:window-width="1920"
     inkscape:window-height="1016"
     inkscape:window-x="0"
     inkscape:window-y="0"
     inkscape:window-maximized="1"
     inkscape:current-layer="svg68" />
  <path
     d="M 415.81 50.59 C 425.25 48.12 435.16 45.90 444.93 47.24 C 452.32 47.70 458.36 52.55 463.47 57.48 C 471.46 65.59 474.63 77.06 476.26 88.03 C 479.35 111.06 476.96 134.44 472.57 157.15 C 471.47 164.32 469.54 171.37 469.10 178.63 C 465.79 177.33 462.43 176.05 458.92 175.40 C 455.42 174.75 451.79 174.80 448.42 173.60 C 449.15 171.99 449.88 170.36 450.29 168.63 C 453.84 151.57 458.26 134.52 458.62 117.00 C 458.67 111.59 458.94 106.05 457.20 100.84 C 455.48 91.04 450.15 81.82 441.90 76.13 C 434.58 71.37 425.58 69.84 416.98 70.55 C 400.84 71.76 385.80 78.40 371.40 85.32 C 359.86 90.45 349.12 97.12 338.00 103.06 C 327.54 108.32 318.00 115.16 307.76 120.82 C 298.40 126.04 290.03 132.78 281.27 138.90 L 281.64 139.82 C 279.64 139.51 277.62 139.38 275.61 139.24 C 275.31 142.91 275.29 146.60 275.38 150.28 C 265.88 152.08 256.45 154.26 247.06 156.55 C 249.30 151.33 253.43 147.37 256.97 143.05 C 258.87 140.79 256.89 138.35 254.80 137.26 C 252.58 134.37 252.45 130.67 251.71 127.26 C 249.65 122.37 245.75 118.58 241.91 115.06 C 227.98 102.86 213.76 90.93 198.37 80.58 C 188.82 74.57 178.45 69.57 167.47 66.83 C 156.58 64.14 144.00 66.85 136.46 75.50 C 125.87 86.95 122.57 102.93 121.60 118.02 C 120.68 142.07 124.04 166.00 127.53 189.74 C 130.85 190.31 134.20 190.71 137.55 191.16 C 150.61 193.42 163.85 196.59 175.18 203.76 C 182.19 207.43 188.04 212.89 192.90 219.08 C 200.06 227.20 203.81 237.53 207.54 247.51 C 210.10 254.41 214.88 260.06 219.22 265.88 C 222.05 270.91 226.94 274.28 231.66 277.37 C 244.62 285.44 259.89 289.16 275.01 290.08 C 285.36 290.88 295.97 291.04 305.90 294.33 C 312.55 296.58 316.56 303.17 317.76 309.80 C 318.64 308.18 319.57 306.58 320.23 304.86 C 322.38 298.12 325.47 291.74 328.13 285.20 C 332.51 273.89 336.37 262.39 340.27 250.91 C 340.68 250.77 341.51 250.48 341.92 250.33 C 347.56 254.26 352.06 259.89 354.86 266.16 C 355.68 267.71 355.67 269.48 355.73 271.19 C 353.87 266.08 352.43 260.35 348.01 256.77 C 346.13 272.56 342.05 288.02 337.01 303.08 C 327.88 331.90 313.90 358.79 301.18 386.12 C 294.92 400.01 287.28 413.25 281.54 427.38 C 274.01 442.44 268.12 458.27 260.08 473.08 C 258.15 476.64 256.19 480.18 254.37 483.80 C 253.80 484.89 253.06 485.87 252.18 486.74 C 248.11 481.11 245.16 474.81 241.63 468.87 C 250.96 451.73 259.80 434.32 269.05 417.14 C 276.74 402.13 285.23 387.54 292.71 372.42 C 295.57 367.21 299.10 362.15 299.94 356.12 C 303.89 349.83 306.97 343.05 310.35 336.45 C 312.23 332.94 312.95 329.01 313.83 325.17 C 312.61 327.63 310.77 329.67 308.89 331.64 C 310.12 330.80 311.28 329.87 312.53 329.07 C 311.45 334.38 308.64 339.14 305.71 343.63 C 298.62 352.95 289.42 360.46 279.52 366.64 C 266.95 375.31 251.12 378.98 236.00 377.06 C 226.57 375.40 218.12 368.73 214.43 359.87 C 211.85 353.51 213.72 346.40 216.50 340.44 C 218.84 335.23 223.27 331.41 226.02 326.46 C 226.55 327.10 227.09 327.74 227.63 328.38 C 228.05 327.82 228.47 327.26 228.89 326.71 C 228.47 326.02 228.06 325.34 227.65 324.65 C 231.40 321.25 233.84 316.09 238.86 314.33 C 232.49 324.15 225.37 334.17 223.39 345.96 C 221.93 353.05 225.99 360.43 232.17 363.86 C 237.82 367.29 244.82 366.94 251.09 365.88 C 258.39 364.66 264.84 360.77 270.97 356.84 C 278.14 352.23 284.80 346.84 290.80 340.79 C 298.28 333.01 303.96 323.42 306.94 313.03 C 308.05 308.80 308.07 302.79 303.60 300.50 C 290.06 293.57 274.36 296.58 259.98 293.07 C 249.19 290.53 238.28 287.21 229.03 280.91 C 221.76 275.69 214.61 269.83 210.03 262.01 C 204.05 252.01 200.05 240.98 194.03 231.01 C 184.83 216.66 169.39 206.75 152.88 203.04 C 140.68 200.83 128.14 200.66 115.83 202.01 C 111.74 202.26 107.65 202.14 103.56 202.30 C 102.64 199.34 103.06 195.04 99.99 193.31 C 85.82 193.37 71.87 196.39 57.80 197.76 C 61.68 195.55 66.77 194.81 69.72 191.33 L 70.07 190.81 C 85.94 189.92 101.89 188.58 117.75 190.41 C 115.51 183.46 115.38 176.08 114.01 168.94 C 113.42 162.62 112.39 156.34 111.75 150.02 C 110.70 130.98 111.10 111.63 115.75 93.04 C 119.00 79.38 125.55 65.59 137.59 57.62 C 146.44 51.39 157.78 50.23 168.24 51.80 C 177.16 53.48 185.65 56.96 193.47 61.52 C 214.29 74.07 232.72 90.04 250.88 106.07 C 254.11 109.09 257.60 111.83 260.52 115.17 C 260.99 118.15 259.35 120.83 258.29 123.50 C 263.89 123.21 269.43 124.22 275.02 124.32 C 276.86 124.75 277.18 122.44 277.84 121.30 C 294.23 111.78 311.03 102.97 327.42 93.45 C 337.88 87.53 348.21 81.39 358.90 75.88 C 377.00 65.70 395.82 56.45 415.81 50.59 Z"
     fill="#f09d1d"
     opacity="1.00"
     stroke="#f09d1d"
     stroke-width="0.25"
     id="path4" />
  <path
     d="M 444.93 47.24 C 449.88 46.98 454.48 49.24 458.95 51.08 C 470.59 56.12 480.67 65.49 484.72 77.73 C 488.26 88.71 488.63 100.49 487.63 111.90 C 485.84 135.62 480.18 158.81 474.08 181.73 C 469.47 181.78 465.88 178.51 461.52 177.62 C 458.05 176.84 454.44 177.53 450.96 176.76 C 446.31 176.02 442.66 172.45 437.92 172.04 C 434.93 172.08 433.67 169.06 431.39 167.75 C 429.80 167.27 428.15 167.64 426.89 168.66 C 428.43 168.77 429.97 168.85 431.52 168.90 C 431.63 170.39 431.11 171.87 429.71 172.56 C 427.51 174.07 424.94 172.20 422.53 172.33 C 422.10 170.64 422.13 168.92 422.63 167.24 C 420.63 166.67 418.34 166.16 416.63 167.72 C 414.16 169.66 410.86 169.60 407.98 168.76 C 406.95 169.13 405.87 170.12 404.74 169.52 C 403.41 168.25 403.45 166.11 402.07 164.92 C 392.31 162.77 383.15 158.43 373.34 156.34 C 378.30 159.25 379.26 165.97 384.48 168.50 C 393.48 172.96 403.36 175.08 413.06 177.38 C 421.24 178.96 429.63 181.01 437.98 179.68 C 442.36 179.77 445.68 183.56 450.08 183.65 C 454.34 184.07 459.40 182.03 462.51 186.02 C 455.90 185.10 449.18 186.29 442.61 185.09 C 439.47 184.34 436.24 184.34 433.05 184.51 C 419.96 185.14 406.98 183.00 393.99 181.87 C 381.93 180.85 369.96 179.03 358.01 177.18 C 352.18 176.08 346.23 176.56 340.33 176.31 C 345.93 181.24 349.73 187.95 352.37 194.86 C 356.93 205.98 358.14 218.11 358.81 230.00 C 358.66 231.68 360.41 232.47 361.42 233.48 C 371.19 240.91 378.70 252.44 378.60 265.03 C 378.76 281.17 371.29 296.26 361.95 309.00 C 354.75 317.97 346.49 326.13 337.34 333.11 C 335.62 337.21 335.12 341.78 333.13 345.82 C 339.02 341.09 344.76 336.17 350.28 331.03 C 350.32 332.59 349.61 333.96 348.81 335.25 C 349.47 337.80 349.18 340.39 348.94 342.97 C 349.29 348.41 351.16 353.61 351.80 359.02 C 351.94 361.47 353.77 363.24 355.16 365.09 C 356.51 363.94 357.86 362.79 359.29 361.73 C 359.66 361.73 360.42 361.73 360.79 361.73 C 331.28 394.94 300.53 427.07 272.34 461.44 C 266.26 468.81 259.83 475.94 254.37 483.80 C 256.19 480.18 258.15 476.64 260.08 473.08 C 268.12 458.27 274.01 442.44 281.54 427.38 C 287.28 413.25 294.92 400.01 301.18 386.12 C 313.90 358.79 327.88 331.90 337.01 303.08 C 342.05 288.02 346.13 272.56 348.01 256.77 C 352.43 260.35 353.87 266.08 355.73 271.19 C 355.67 269.48 355.68 267.71 354.86 266.16 C 352.06 259.89 347.56 254.26 341.92 250.33 C 340.61 249.54 340.03 248.09 339.37 246.80 C 349.89 250.74 357.29 260.12 361.66 270.14 C 364.38 276.64 363.61 284.02 361.44 290.56 C 358.26 299.75 352.78 308.02 346.11 315.05 C 343.04 318.12 341.00 321.97 339.04 325.79 C 349.44 318.08 359.60 309.46 366.05 298.04 C 371.17 289.46 372.91 278.81 370.57 269.08 C 366.26 254.95 353.80 244.08 339.74 240.14 C 326.20 236.39 311.62 234.80 297.88 238.52 C 288.21 240.96 279.65 246.68 272.59 253.60 C 264.39 262.74 257.51 273.07 252.31 284.21 C 253.21 284.45 255.01 284.93 255.91 285.17 C 269.36 288.80 283.49 285.01 297.12 287.47 C 306.33 288.51 315.54 293.01 320.46 301.12 C 320.45 302.37 320.37 303.61 320.23 304.86 C 319.57 306.58 318.64 308.18 317.76 309.80 C 316.56 303.17 312.55 296.58 305.90 294.33 C 295.97 291.04 285.36 290.88 275.01 290.08 C 259.89 289.16 244.62 285.44 231.66 277.37 C 226.94 274.28 222.05 270.91 219.22 265.88 C 222.90 271.26 229.02 273.74 235.14 275.19 C 240.67 268.71 243.99 260.73 249.12 253.96 C 259.22 239.96 273.27 228.36 289.88 223.09 C 307.43 217.17 326.67 218.82 344.14 224.15 C 343.91 221.21 342.68 218.53 341.16 216.06 C 342.90 218.92 344.42 221.96 346.72 224.43 C 349.16 226.06 351.91 227.19 354.47 228.62 C 353.59 216.22 350.53 204.10 346.58 192.34 C 344.79 187.17 342.33 182.23 339.39 177.62 C 335.42 171.48 329.12 167.48 323.15 163.51 C 334.78 163.84 346.45 162.56 358.05 164.01 C 363.03 164.33 367.92 165.81 372.93 165.71 C 374.80 165.72 374.81 163.18 374.34 161.91 C 371.77 156.83 365.40 154.52 359.97 155.34 C 349.65 156.64 339.45 158.96 329.04 159.55 C 325.32 159.53 320.63 159.38 318.89 155.42 C 312.55 155.30 306.21 155.38 299.88 155.53 C 301.62 162.12 300.46 168.91 298.98 175.42 C 305.77 176.30 312.71 177.69 318.50 181.57 C 319.89 182.49 321.02 184.36 319.90 185.95 C 318.22 188.73 314.80 189.59 311.92 190.58 C 306.36 192.62 300.59 190.26 294.92 190.36 C 288.14 190.10 281.36 190.34 274.59 190.72 C 270.48 193.11 267.39 196.88 263.31 199.34 C 255.94 195.11 247.22 195.09 239.00 194.22 C 229.13 192.95 219.06 192.73 209.21 194.30 C 207.36 194.52 205.49 194.43 203.64 194.43 C 210.23 190.63 217.90 189.56 224.83 186.58 C 233.47 183.01 242.46 179.65 251.93 179.50 C 260.64 179.33 269.35 178.93 278.02 178.12 C 283.61 177.31 289.77 176.13 293.74 171.73 C 297.08 168.27 298.61 163.09 297.37 158.41 C 296.84 156.55 294.92 155.65 293.10 155.76 C 285.38 155.50 277.68 156.51 270.06 157.68 C 267.52 158.25 264.54 158.61 262.85 160.83 C 261.91 162.54 262.72 164.49 263.02 166.25 C 265.81 165.29 267.18 162.87 266.38 160.00 C 270.60 159.97 270.21 164.91 269.72 167.88 C 269.29 171.33 265.50 174.29 262.07 173.06 C 258.20 170.33 259.85 164.92 260.70 161.06 C 260.16 161.89 259.62 162.71 259.09 163.54 C 246.54 163.66 233.63 165.33 222.48 171.46 C 212.02 177.78 203.79 187.16 193.19 193.30 C 190.66 194.76 187.63 194.69 184.81 195.05 C 182.60 195.09 180.22 194.13 178.16 195.27 L 177.85 195.69 C 177.25 193.56 177.34 190.30 179.82 189.44 C 184.95 186.88 190.28 184.41 194.47 180.40 C 198.62 176.44 203.30 173.09 208.12 170.01 C 217.94 164.07 229.33 161.74 240.21 158.54 C 242.73 151.01 249.05 144.64 256.97 143.05 C 253.43 147.37 249.30 151.33 247.06 156.55 C 256.45 154.26 265.88 152.08 275.38 150.28 C 283.11 149.11 291.06 148.79 298.82 149.84 C 305.79 151.82 312.77 153.86 319.88 155.31 C 334.37 155.35 348.47 150.74 362.95 150.40 C 380.92 149.87 396.49 160.98 414.02 162.89 C 421.27 164.13 428.63 162.69 435.89 163.52 C 439.59 164.76 441.14 168.72 443.62 171.40 C 445.05 172.46 446.79 172.92 448.42 173.60 C 451.79 174.80 455.42 174.75 458.92 175.40 C 462.43 176.05 465.79 177.33 469.10 178.63 C 469.54 171.37 471.47 164.32 472.57 157.15 C 476.96 134.44 479.35 111.06 476.26 88.03 C 474.63 77.06 471.46 65.59 463.47 57.48 C 458.36 52.55 452.32 47.70 444.93 47.24 Z"
     fill="#011431"
     opacity="1.00"
     stroke="#011431"
     stroke-width="0.25"
     id="path6" />
  <path
     d="M 136.46 75.50 C 144.00 66.85 156.58 64.14 167.47 66.83 C 178.45 69.57 188.82 74.57 198.37 80.58 C 213.76 90.93 227.98 102.86 241.91 115.06 C 245.75 118.58 249.65 122.37 251.71 127.26 C 252.45 130.67 252.58 134.37 254.80 137.26 C 252.24 135.48 250.27 133.05 248.19 130.76 C 239.83 121.84 230.89 113.47 221.45 105.70 C 210.76 96.75 199.30 88.18 185.99 83.57 C 176.97 80.35 166.17 80.41 158.20 86.23 C 149.64 92.95 144.65 103.19 141.58 113.42 C 134.71 138.69 134.30 165.31 137.55 191.16 C 134.20 190.71 130.85 190.31 127.53 189.74 C 124.04 166.00 120.68 142.07 121.60 118.02 C 122.57 102.93 125.87 86.95 136.46 75.50 Z"
     fill="#011431"
     opacity="1.00"
     stroke="#011431"
     stroke-width="0.25"
     id="path8" />
  <path
     d="M 371.40 85.32 C 385.80 78.40 400.84 71.76 416.98 70.55 C 425.58 69.84 434.58 71.37 441.90 76.13 C 450.15 81.82 455.48 91.04 457.20 100.84 C 454.77 92.63 447.33 86.55 438.90 85.41 C 416.30 81.45 393.94 89.45 373.51 98.37 C 350.40 108.35 328.89 121.51 307.22 134.21 C 301.82 137.02 297.45 141.26 293.10 145.43 C 289.57 143.01 285.56 141.47 281.64 139.82 L 281.27 138.90 C 290.03 132.78 298.40 126.04 307.76 120.82 C 318.00 115.16 327.54 108.32 338.00 103.06 C 349.12 97.12 359.86 90.45 371.40 85.32 Z"
     fill="#011431"
     opacity="1.00"
     stroke="#011431"
     stroke-width="0.25"
     id="path10" />
  <path
     d="M 158.20 86.23 C 166.17 80.41 176.97 80.35 185.99 83.57 C 199.30 88.18 210.76 96.75 221.45 105.70 C 230.89 113.47 239.83 121.84 248.19 130.76 C 250.27 133.05 252.24 135.48 254.80 137.26 C 256.89 138.35 258.87 140.79 256.97 143.05 C 249.05 144.64 242.73 151.01 240.21 158.54 C 229.33 161.74 217.94 164.07 208.12 170.01 C 203.30 173.09 198.62 176.44 194.47 180.40 C 190.28 184.41 184.95 186.88 179.82 189.44 C 177.34 190.30 177.25 193.56 177.85 195.69 C 178.77 198.20 181.59 199.44 184.00 200.12 C 189.41 199.86 194.57 197.83 200.00 197.66 C 202.96 197.58 206.26 197.26 208.68 199.33 C 205.81 203.19 202.07 206.30 199.03 210.01 C 198.97 210.67 198.84 212.00 198.77 212.66 C 204.66 210.02 208.42 204.36 213.61 200.68 C 216.63 197.96 220.98 198.56 224.69 197.67 C 222.09 202.63 217.48 206.64 216.60 212.40 C 218.61 211.22 220.30 209.61 221.93 207.97 C 225.74 204.16 230.23 201.08 235.07 198.73 C 238.07 198.58 241.07 198.95 244.05 199.30 L 243.33 200.65 C 240.77 204.13 237.57 207.53 237.18 212.06 C 241.82 209.51 244.87 204.85 249.62 202.42 C 249.05 205.98 250.72 209.42 252.73 212.26 C 255.80 216.51 259.36 220.37 262.99 224.14 C 266.98 220.51 271.21 217.05 274.76 212.97 C 274.66 205.56 274.03 198.14 274.59 190.72 C 281.36 190.34 288.14 190.10 294.92 190.36 C 301.32 191.06 307.82 191.69 313.91 193.94 C 325.14 197.89 335.22 205.66 341.16 216.06 C 342.68 218.53 343.91 221.21 344.14 224.15 C 326.67 218.82 307.43 217.17 289.88 223.09 C 273.27 228.36 259.22 239.96 249.12 253.96 C 243.99 260.73 240.67 268.71 235.14 275.19 C 229.02 273.74 222.90 271.26 219.22 265.88 C 214.88 260.06 210.10 254.41 207.54 247.51 C 203.81 237.53 200.06 227.20 192.90 219.08 C 188.04 212.89 182.19 207.43 175.18 203.76 C 163.85 196.59 150.61 193.42 137.55 191.16 C 134.30 165.31 134.71 138.69 141.58 113.42 C 144.65 103.19 149.64 92.95 158.20 86.23 Z"
     fill="#ffffff"
     opacity="1.00"
     stroke="#ffffff"
     stroke-width="0.25"
     id="path12" />
  <path
     d="M 373.51 98.37 C 393.94 89.45 416.30 81.45 438.90 85.41 C 447.33 86.55 454.77 92.63 457.20 100.84 C 458.94 106.05 458.67 111.59 458.62 117.00 C 458.26 134.52 453.84 151.57 450.29 168.63 C 449.88 170.36 449.15 171.99 448.42 173.60 C 446.79 172.92 445.05 172.46 443.62 171.40 C 441.14 168.72 439.59 164.76 435.89 163.52 C 428.63 162.69 421.27 164.13 414.02 162.89 C 396.49 160.98 380.92 149.87 362.95 150.40 C 348.47 150.74 334.37 155.35 319.88 155.31 C 312.77 153.86 305.79 151.82 298.82 149.84 C 291.06 148.79 283.11 149.11 275.38 150.28 C 275.29 146.60 275.31 142.91 275.61 139.24 C 277.62 139.38 279.64 139.51 281.64 139.82 C 285.56 141.47 289.57 143.01 293.10 145.43 C 297.45 141.26 301.82 137.02 307.22 134.21 C 328.89 121.51 350.40 108.35 373.51 98.37 Z"
     fill="#ffffff"
     opacity="1.00"
     stroke="#ffffff"
     stroke-width="0.25"
     id="path14" />
  <path
     d="M 260.52 115.17 C 262.07 116.99 263.15 119.81 265.93 119.92 C 269.82 120.88 273.86 120.92 277.84 121.30 C 277.18 122.44 276.86 124.75 275.02 124.32 C 269.43 124.22 263.89 123.21 258.29 123.50 C 259.35 120.83 260.99 118.15 260.52 115.17 Z"
     fill="#011431"
     opacity="1.00"
     stroke="#011431"
     stroke-width="0.25"
     id="path16" />
  <path
     d="M 329.04 159.55 C 339.45 158.96 349.65 156.64 359.97 155.34 C 365.40 154.52 371.77 156.83 374.34 161.91 C 374.81 163.18 374.80 165.72 372.93 165.71 C 367.92 165.81 363.03 164.33 358.05 164.01 C 346.45 162.56 334.78 163.84 323.15 163.51 C 329.12 167.48 335.42 171.48 339.39 177.62 C 342.33 182.23 344.79 187.17 346.58 192.34 C 350.53 204.10 353.59 216.22 354.47 228.62 C 351.91 227.19 349.16 226.06 346.72 224.43 C 344.42 221.96 342.90 218.92 341.16 216.06 C 335.22 205.66 325.14 197.89 313.91 193.94 C 307.82 191.69 301.32 191.06 294.92 190.36 C 300.59 190.26 306.36 192.62 311.92 190.58 C 314.80 189.59 318.22 188.73 319.90 185.95 C 321.02 184.36 319.89 182.49 318.50 181.57 C 312.71 177.69 305.77 176.30 298.98 175.42 C 300.46 168.91 301.62 162.12 299.88 155.53 C 306.21 155.38 312.55 155.30 318.89 155.42 C 320.63 159.38 325.32 159.53 329.04 159.55 Z"
     fill="#f09d1d"
     opacity="1.00"
     stroke="#f09d1d"
     stroke-width="0.25"
     id="path18" />
  <path
     d="M 270.06 157.68 C 277.68 156.51 285.38 155.50 293.10 155.76 C 294.92 155.65 296.84 156.55 297.37 158.41 C 298.61 163.09 297.08 168.27 293.74 171.73 C 289.77 176.13 283.61 177.31 278.02 178.12 C 269.35 178.93 260.64 179.33 251.93 179.50 C 242.46 179.65 233.47 183.01 224.83 186.58 C 217.90 189.56 210.23 190.63 203.64 194.43 C 197.47 195.93 191.08 195.49 184.81 195.05 C 187.63 194.69 190.66 194.76 193.19 193.30 C 203.79 187.16 212.02 177.78 222.48 171.46 C 233.63 165.33 246.54 163.66 259.09 163.54 C 259.62 162.71 260.16 161.89 260.70 161.06 C 259.85 164.92 258.20 170.33 262.07 173.06 C 265.50 174.29 269.29 171.33 269.72 167.88 C 270.21 164.91 270.60 159.97 266.38 160.00 C 267.18 162.87 265.81 165.29 263.02 166.25 C 262.72 164.49 261.91 162.54 262.85 160.83 C 264.54 158.61 267.52 158.25 270.06 157.68 Z"
     fill="#ffffff"
     opacity="1.00"
     stroke="#ffffff"
     stroke-width="0.25"
     id="path20" />
  <path
     d="M 408.08 165.28 C 409.00 164.31 411.50 165.40 410.61 166.77 C 409.67 167.76 406.95 166.72 408.08 165.28 Z"
     fill="#013974"
     opacity="1.00"
     stroke="#013974"
     stroke-width="0.25"
     id="path22" />
  <path
     d="M 340.33 176.31 C 346.23 176.56 352.18 176.08 358.01 177.18 C 369.96 179.03 381.93 180.85 393.99 181.87 C 406.98 183.00 419.96 185.14 433.05 184.51 C 436.24 184.34 439.47 184.34 442.61 185.09 C 434.83 210.28 423.09 234.08 410.19 257.00 C 394.47 284.80 373.14 308.93 350.28 331.03 C 344.76 336.17 339.02 341.09 333.13 345.82 C 335.12 341.78 335.62 337.21 337.34 333.11 C 346.49 326.13 354.75 317.97 361.95 309.00 C 371.29 296.26 378.76 281.17 378.60 265.03 C 378.70 252.44 371.19 240.91 361.42 233.48 C 360.41 232.47 358.66 231.68 358.81 230.00 C 358.14 218.11 356.93 205.98 352.37 194.86 C 349.73 187.95 345.93 181.24 340.33 176.31 Z"
     fill="#ffffff"
     opacity="1.00"
     stroke="#ffffff"
     stroke-width="0.25"
     id="path24" />
  <path
     d="M 471.72 186.00 C 469.97 184.56 465.78 184.38 466.35 181.35 C 468.46 182.21 470.62 182.94 472.81 183.55 C 472.92 187.79 470.58 191.40 469.68 195.43 C 464.97 209.27 459.23 222.79 452.83 235.93 C 453.37 232.59 453.91 229.24 455.07 226.05 C 458.89 215.51 461.64 204.63 464.95 193.93 C 465.66 191.84 465.76 189.63 465.79 187.44 C 467.74 187.69 469.42 188.75 471.11 189.69 C 471.28 188.46 471.48 187.23 471.72 186.00 Z"
     fill="#011431"
     opacity="1.00"
     stroke="#011431"
     stroke-width="0.25"
     id="path26" />
  <path
     d="M 442.61 185.09 C 449.18 186.29 455.90 185.10 462.51 186.02 C 463.63 186.32 464.70 186.75 465.80 187.14 L 465.79 187.44 C 465.76 189.63 465.66 191.84 464.95 193.93 C 461.64 204.63 458.89 215.51 455.07 226.05 C 453.91 229.24 453.37 232.59 452.83 235.93 C 446.20 250.91 438.31 265.42 428.75 278.76 C 408.52 308.28 384.98 335.31 360.93 361.73 L 360.79 361.73 C 360.42 361.73 359.66 361.73 359.29 361.73 C 357.86 362.79 356.51 363.94 355.16 365.09 C 353.77 363.24 351.94 361.47 351.80 359.02 C 351.16 353.61 349.29 348.41 348.94 342.97 C 349.18 340.39 349.47 337.80 348.81 335.25 C 349.61 333.96 350.32 332.59 350.28 331.03 C 373.14 308.93 394.47 284.80 410.19 257.00 C 423.09 234.08 434.83 210.28 442.61 185.09 Z"
     fill="#013974"
     opacity="1.00"
     stroke="#013974"
     stroke-width="0.25"
     id="path28" />
  <path
     d="M 263.31 199.34 C 267.39 196.88 270.48 193.11 274.59 190.72 C 274.03 198.14 274.66 205.56 274.76 212.97 C 271.21 217.05 266.98 220.51 262.99 224.14 C 259.36 220.37 255.80 216.51 252.73 212.26 C 250.72 209.42 249.05 205.98 249.62 202.42 C 251.14 201.35 255.37 201.42 254.18 198.67 C 250.48 198.21 245.66 196.76 243.33 200.65 L 244.05 199.30 C 241.07 198.95 238.07 198.58 235.07 198.73 C 238.48 197.93 242.02 198.70 245.48 198.23 C 240.30 196.13 234.55 196.20 229.06 195.61 C 222.48 196.71 215.60 196.31 209.27 198.67 C 209.12 198.83 208.83 199.16 208.68 199.33 C 206.26 197.26 202.96 197.58 200.00 197.66 C 194.57 197.83 189.41 199.86 184.00 200.12 C 181.59 199.44 178.77 198.20 177.85 195.69 L 178.16 195.27 C 180.22 194.13 182.60 195.09 184.81 195.05 C 191.08 195.49 197.47 195.93 203.64 194.43 C 205.49 194.43 207.36 194.52 209.21 194.30 C 219.06 192.73 229.13 192.95 239.00 194.22 C 247.22 195.09 255.94 195.11 263.31 199.34 Z"
     fill="#f09d1d"
     opacity="1.00"
     stroke="#f09d1d"
     stroke-width="0.25"
     id="path30" />
  <path
     d="M 43.00 197.36 C 51.92 195.41 60.40 191.02 69.72 191.33 C 66.77 194.81 61.68 195.55 57.80 197.76 C 71.87 196.39 85.82 193.37 99.99 193.31 C 103.06 195.04 102.64 199.34 103.56 202.30 C 107.65 202.14 111.74 202.26 115.83 202.01 C 128.14 200.66 140.68 200.83 152.88 203.04 C 169.39 206.75 184.83 216.66 194.03 231.01 C 200.05 240.98 204.05 252.01 210.03 262.01 C 214.61 269.83 221.76 275.69 229.03 280.91 C 238.28 287.21 249.19 290.53 259.98 293.07 C 274.36 296.58 290.06 293.57 303.60 300.50 C 308.07 302.79 308.05 308.80 306.94 313.03 C 303.96 323.42 298.28 333.01 290.80 340.79 C 284.80 346.84 278.14 352.23 270.97 356.84 C 264.84 360.77 258.39 364.66 251.09 365.88 C 244.82 366.94 237.82 367.29 232.17 363.86 C 225.99 360.43 221.93 353.05 223.39 345.96 C 225.37 334.17 232.49 324.15 238.86 314.33 C 233.84 316.09 231.40 321.25 227.65 324.65 C 228.06 325.34 228.47 326.02 228.89 326.71 C 228.47 327.26 228.05 327.82 227.63 328.38 C 227.09 327.74 226.55 327.10 226.02 326.46 C 223.27 331.41 218.84 335.23 216.50 340.44 C 213.72 346.40 211.85 353.51 214.43 359.87 C 218.12 368.73 226.57 375.40 236.00 377.06 C 251.12 378.98 266.95 375.31 279.52 366.64 C 289.42 360.46 298.62 352.95 305.71 343.63 C 308.64 339.14 311.45 334.38 312.53 329.07 C 311.28 329.87 310.12 330.80 308.89 331.64 C 310.77 329.67 312.61 327.63 313.83 325.17 C 312.95 329.01 312.23 332.94 310.35 336.45 C 306.97 343.05 303.89 349.83 299.94 356.12 C 298.00 359.37 294.78 361.50 291.92 363.86 C 278.28 374.58 261.69 382.68 244.00 382.52 C 234.37 382.98 224.79 380.49 216.35 375.92 C 214.36 396.98 210.80 417.88 209.43 439.00 C 209.89 442.08 206.04 441.80 204.40 443.46 C 202.26 444.99 202.13 447.79 200.88 449.91 C 200.58 448.61 200.34 447.27 199.57 446.16 C 199.92 446.31 200.62 446.59 200.97 446.74 C 203.02 442.79 204.11 438.43 204.21 433.99 C 204.81 415.03 204.12 396.05 204.63 377.09 C 205.16 370.39 205.41 363.63 206.78 357.03 C 208.16 349.66 210.91 342.65 213.78 335.75 C 217.03 327.77 222.19 320.80 226.15 313.18 C 231.38 313.12 236.65 313.82 241.86 313.01 C 238.10 317.71 235.35 323.11 232.73 328.51 C 229.34 335.53 226.65 343.14 226.70 351.03 C 226.77 356.16 229.55 361.76 234.94 362.94 C 242.76 364.68 251.43 364.35 258.63 360.54 C 269.58 355.13 279.69 347.93 288.12 339.08 C 294.73 331.87 300.96 323.55 302.55 313.64 C 299.58 313.22 296.62 312.76 293.64 312.45 C 288.85 311.31 283.92 311.73 279.05 311.67 C 266.99 311.65 254.83 311.84 242.94 309.53 C 235.28 308.59 228.16 305.57 220.98 302.93 C 217.95 306.27 215.01 309.70 211.77 312.85 C 214.10 308.97 216.34 304.96 219.69 301.85 C 219.34 301.67 218.65 301.30 218.30 301.11 C 209.57 294.54 200.97 287.53 194.21 278.86 C 186.42 269.04 181.71 257.31 175.42 246.57 C 171.22 239.31 164.72 233.75 157.93 228.99 C 148.86 223.00 137.65 221.91 127.09 221.04 C 119.64 220.23 112.15 221.20 104.69 220.74 C 104.61 220.96 104.45 221.40 104.38 221.62 L 104.34 221.72 C 100.12 221.03 95.84 221.74 91.59 221.62 C 86.01 221.60 80.32 222.14 74.84 220.80 C 70.01 219.73 66.04 216.23 61.02 215.78 C 52.97 214.85 44.80 215.03 36.78 216.16 C 34.50 216.64 32.31 215.93 30.24 215.07 C 33.78 216.21 37.41 215.05 40.88 214.28 C 47.76 212.59 54.91 212.07 61.96 212.78 C 66.96 213.46 71.88 215.05 76.98 214.79 C 82.25 214.98 87.20 212.91 91.81 210.58 C 94.94 208.97 97.91 206.84 99.94 203.92 C 101.40 201.68 100.69 198.87 100.41 196.40 C 95.59 196.45 90.82 197.19 86.02 197.49 C 83.96 197.69 81.74 197.73 79.93 198.86 C 79.33 199.88 78.17 203.04 80.12 202.88 C 82.47 203.46 82.09 200.46 82.80 199.08 C 85.35 201.16 84.75 205.40 82.23 207.27 C 80.01 208.28 76.81 208.01 75.67 205.54 C 74.04 202.23 77.04 199.38 78.74 196.85 C 73.50 198.42 68.66 201.62 63.05 201.63 C 56.21 201.96 49.64 204.00 43.04 205.61 C 34.62 207.64 26.27 210.88 17.47 210.29 C 18.35 215.18 23.37 216.92 27.00 219.40 C 23.46 218.59 19.56 217.76 17.04 214.91 C 15.03 212.73 14.93 209.50 15.47 206.74 C 25.08 204.97 33.47 199.44 43.00 197.36 Z"
     fill="#011431"
     opacity="1.00"
     stroke="#011431"
     stroke-width="0.25"
     id="path32" />
  <path
     d="M 209.27 198.67 C 215.60 196.31 222.48 196.71 229.06 195.61 C 234.55 196.20 240.30 196.13 245.48 198.23 C 242.02 198.70 238.48 197.93 235.07 198.73 C 230.23 201.08 225.74 204.16 221.93 207.97 C 220.30 209.61 218.61 211.22 216.60 212.40 C 217.48 206.64 222.09 202.63 224.69 197.67 C 220.98 198.56 216.63 197.96 213.61 200.68 C 208.42 204.36 204.66 210.02 198.77 212.66 C 198.84 212.00 198.97 210.67 199.03 210.01 C 202.07 206.30 205.81 203.19 208.68 199.33 C 208.83 199.16 209.12 198.83 209.27 198.67 Z"
     fill="#011431"
     opacity="1.00"
     stroke="#011431"
     stroke-width="0.25"
     id="path34" />
  <path
     d="M 63.05 201.63 C 68.66 201.62 73.50 198.42 78.74 196.85 C 77.04 199.38 74.04 202.23 75.67 205.54 C 76.81 208.01 80.01 208.28 82.23 207.27 C 84.75 205.40 85.35 201.16 82.80 199.08 C 82.09 200.46 82.47 203.46 80.12 202.88 C 78.17 203.04 79.33 199.88 79.93 198.86 C 81.74 197.73 83.96 197.69 86.02 197.49 C 90.82 197.19 95.59 196.45 100.41 196.40 C 100.69 198.87 101.40 201.68 99.94 203.92 C 97.91 206.84 94.94 208.97 91.81 210.58 C 87.20 212.91 82.25 214.98 76.98 214.79 C 71.88 215.05 66.96 213.46 61.96 212.78 C 54.91 212.07 47.76 212.59 40.88 214.28 C 37.41 215.05 33.78 216.21 30.24 215.07 C 25.76 214.02 21.64 212.14 17.47 210.29 C 26.27 210.88 34.62 207.64 43.04 205.61 C 49.64 204.00 56.21 201.96 63.05 201.63 Z"
     fill="#ffffff"
     opacity="1.00"
     stroke="#ffffff"
     stroke-width="0.25"
     id="path36" />
  <path
     d="M 243.33 200.65 C 245.66 196.76 250.48 198.21 254.18 198.67 C 255.37 201.42 251.14 201.35 249.62 202.42 C 244.87 204.85 241.82 209.51 237.18 212.06 C 237.57 207.53 240.77 204.13 243.33 200.65 Z"
     fill="#011431"
     opacity="1.00"
     stroke="#011431"
     stroke-width="0.25"
     id="path38" />
  <path
     d="M 105.29 206.55 C 109.44 205.12 113.94 205.58 118.26 205.20 C 115.99 208.68 113.26 212.33 109.04 213.48 C 103.29 215.66 97.10 215.43 91.07 215.65 C 96.39 213.67 101.04 210.26 105.29 206.55 Z"
     fill="#f09d1d"
     opacity="1.00"
     stroke="#f09d1d"
     stroke-width="0.25"
     id="path40" />
  <path
     d="M 119.33 212.39 C 119.23 209.41 121.82 207.07 123.93 205.34 C 131.59 204.28 139.34 205.03 147.02 205.36 C 155.44 206.26 163.48 209.39 171.01 213.16 C 180.40 217.83 188.47 225.44 192.95 234.99 C 198.06 244.62 202.03 254.86 207.77 264.16 C 216.32 276.12 228.07 286.09 241.94 291.26 C 251.55 293.74 260.92 297.87 271.03 297.74 C 281.42 298.96 292.43 298.05 301.98 303.08 C 304.00 304.42 303.24 307.21 303.26 309.25 C 289.23 308.14 275.13 309.08 261.08 308.47 C 247.75 306.22 234.04 304.18 221.98 297.70 C 211.02 291.16 201.27 282.28 194.78 271.21 C 188.19 260.65 183.61 248.92 176.25 238.82 C 168.75 229.46 158.51 222.22 147.03 218.65 C 138.08 215.50 128.64 214.05 119.33 212.39 Z"
     fill="#013974"
     opacity="1.00"
     stroke="#013974"
     stroke-width="0.25"
     id="path42" />
  <path
     d="M 17.47 210.29 C 21.64 212.14 25.76 214.02 30.24 215.07 C 32.31 215.93 34.50 216.64 36.78 216.16 C 44.80 215.03 52.97 214.85 61.02 215.78 C 66.04 216.23 70.01 219.73 74.84 220.80 C 80.32 222.14 86.01 221.60 91.59 221.62 L 91.54 222.15 C 87.73 222.02 83.90 222.32 80.11 221.82 C 75.66 221.43 71.32 219.50 66.81 220.57 L 66.63 219.48 C 61.49 218.96 56.29 217.60 51.13 218.18 C 48.79 218.90 46.46 219.81 43.95 219.61 C 38.30 219.43 32.55 221.10 27.00 219.40 C 23.37 216.92 18.35 215.18 17.47 210.29 Z"
     fill="#f09d1d"
     opacity="1.00"
     stroke="#f09d1d"
     stroke-width="0.25"
     id="path44" />
  <path
     d="M 51.13 218.18 C 56.29 217.60 61.49 218.96 66.63 219.48 L 66.81 220.57 C 63.86 222.57 62.20 226.05 58.94 227.62 C 57.99 224.65 59.34 221.91 60.94 219.49 C 58.44 219.80 55.67 219.23 53.37 220.49 C 50.77 222.51 48.87 225.26 46.75 227.75 C 45.30 224.18 47.33 219.26 51.13 218.18 Z"
     fill="#011431"
     opacity="1.00"
     stroke="#011431"
     stroke-width="0.25"
     id="path46" />
  <path
     d="M 104.69 220.74 C 112.15 221.20 119.64 220.23 127.09 221.04 C 137.65 221.91 148.86 223.00 157.93 228.99 C 164.72 233.75 171.22 239.31 175.42 246.57 C 181.71 257.31 186.42 269.04 194.21 278.86 C 200.97 287.53 209.57 294.54 218.30 301.11 C 213.74 299.06 209.63 296.16 205.46 293.43 C 194.79 285.95 187.21 274.98 181.71 263.33 C 175.57 250.40 167.90 237.25 155.31 229.66 C 149.72 226.94 143.62 225.09 137.45 224.33 C 130.95 222.15 123.97 221.80 117.17 221.42 L 117.74 222.64 C 117.32 222.36 116.48 221.79 116.06 221.50 C 112.17 221.13 108.23 221.11 104.38 221.62 C 104.45 221.40 104.61 220.96 104.69 220.74 Z"
     fill="#f09d1d"
     opacity="1.00"
     stroke="#f09d1d"
     stroke-width="0.25"
     id="path48" />
  <path
     d="M 117.17 221.42 C 123.97 221.80 130.95 222.15 137.45 224.33 C 144.64 243.62 152.70 262.62 161.89 281.06 C 171.76 300.89 184.63 319.02 197.67 336.85 C 195.50 346.14 193.40 355.59 194.22 365.21 C 189.83 360.83 187.30 355.01 183.60 350.09 C 170.30 331.95 157.99 313.03 147.61 293.06 C 136.07 270.30 126.55 246.56 117.74 222.64 L 117.17 221.42 Z"
     fill="#011431"
     opacity="1.00"
     stroke="#011431"
     stroke-width="0.25"
     id="path50" />
  <path
     d="M 297.96 223.94 C 313.47 220.26 329.64 222.83 344.84 226.76 C 357.85 230.02 368.44 240.00 373.91 252.08 C 376.85 258.29 375.86 265.41 375.50 272.04 C 373.92 271.19 374.06 269.12 373.45 267.66 C 370.14 255.27 360.48 245.41 349.30 239.67 C 336.08 233.92 321.41 230.40 306.95 232.10 C 294.99 233.28 284.53 240.00 275.16 247.05 C 264.67 256.64 256.47 268.72 250.83 281.73 C 248.16 283.25 245.22 281.22 242.62 280.47 C 240.88 279.58 238.47 279.41 237.28 277.77 C 243.92 267.69 250.68 257.62 258.61 248.48 C 269.12 236.91 282.53 227.42 297.96 223.94 Z"
     fill="#013974"
     opacity="1.00"
     stroke="#013974"
     stroke-width="0.25"
     id="path52" />
  <path
     d="M 137.45 224.33 C 143.62 225.09 149.72 226.94 155.31 229.66 C 167.90 237.25 175.57 250.40 181.71 263.33 C 187.21 274.98 194.79 285.95 205.46 293.43 C 209.63 296.16 213.74 299.06 218.30 301.11 C 218.65 301.30 219.34 301.67 219.69 301.85 C 216.34 304.96 214.10 308.97 211.77 312.85 C 206.78 320.67 202.46 328.90 197.67 336.85 C 184.63 319.02 171.76 300.89 161.89 281.06 C 152.70 262.62 144.64 243.62 137.45 224.33 Z"
     fill="#ffffff"
     opacity="1.00"
     stroke="#ffffff"
     stroke-width="0.25"
     id="path54" />
  <path
     d="M 297.88 238.52 C 311.62 234.80 326.20 236.39 339.74 240.14 C 353.80 244.08 366.26 254.95 370.57 269.08 C 372.91 278.81 371.17 289.46 366.05 298.04 C 359.60 309.46 349.44 318.08 339.04 325.79 C 341.00 321.97 343.04 318.12 346.11 315.05 C 352.78 308.02 358.26 299.75 361.44 290.56 C 363.61 284.02 364.38 276.64 361.66 270.14 C 357.29 260.12 349.89 250.74 339.37 246.80 C 329.29 242.11 318.02 240.29 306.97 240.51 C 293.04 240.81 279.62 248.25 271.54 259.52 C 265.81 267.73 260.09 276.02 255.91 285.17 C 255.01 284.93 253.21 284.45 252.31 284.21 C 257.51 273.07 264.39 262.74 272.59 253.60 C 279.65 246.68 288.21 240.96 297.88 238.52 Z"
     fill="#f09d1d"
     opacity="1.00"
     stroke="#f09d1d"
     stroke-width="0.25"
     id="path56" />
  <path
     d="M 271.54 259.52 C 279.62 248.25 293.04 240.81 306.97 240.51 C 318.02 240.29 329.29 242.11 339.37 246.80 C 340.03 248.09 340.61 249.54 341.92 250.33 C 341.51 250.48 340.68 250.77 340.27 250.91 C 336.37 262.39 332.51 273.89 328.13 285.20 C 325.47 291.74 322.38 298.12 320.23 304.86 C 320.37 303.61 320.45 302.37 320.46 301.12 C 315.54 293.01 306.33 288.51 297.12 287.47 C 283.49 285.01 269.36 288.80 255.91 285.17 C 260.09 276.02 265.81 267.73 271.54 259.52 Z"
     fill="#ffffff"
     opacity="1.00"
     stroke="#ffffff"
     stroke-width="0.25"
     id="path58" />
  <path
     d="M 354.82 275.99 C 355.04 274.69 355.59 273.49 356.05 272.28 C 357.96 278.95 359.14 286.23 356.70 292.94 C 354.19 300.26 348.29 305.55 344.20 311.92 C 349.32 300.51 353.16 288.42 354.82 275.99 Z"
     fill="#f09d1d"
     opacity="1.00"
     stroke="#f09d1d"
     stroke-width="0.25"
     id="path60" />
  <path
     d="M 211.77 312.85 C 215.01 309.70 217.95 306.27 220.98 302.93 C 228.16 305.57 235.28 308.59 242.94 309.53 C 254.83 311.84 266.99 311.65 279.05 311.67 C 283.92 311.73 288.85 311.31 293.64 312.45 C 287.76 312.94 281.85 312.47 275.97 313.02 C 264.61 313.82 253.18 311.77 241.86 313.01 C 236.65 313.82 231.38 313.12 226.15 313.18 C 222.19 320.80 217.03 327.77 213.78 335.75 C 210.91 342.65 208.16 349.66 206.78 357.03 C 205.41 363.63 205.16 370.39 204.63 377.09 C 204.12 396.05 204.81 415.03 204.21 433.99 C 204.11 438.43 203.02 442.79 200.97 446.74 C 200.62 446.59 199.92 446.31 199.57 446.16 C 197.46 444.38 195.24 442.49 193.90 440.04 C 193.40 435.05 193.87 430.01 193.74 425.01 C 194.29 405.08 194.51 385.14 194.22 365.21 C 193.40 355.59 195.50 346.14 197.67 336.85 C 202.46 328.90 206.78 320.67 211.77 312.85 Z"
     fill="#f09d1d"
     opacity="1.00"
     stroke="#f09d1d"
     stroke-width="0.25"
     id="path62" />
  <path
     d="M 241.86 313.01 C 253.18 311.77 264.61 313.82 275.97 313.02 C 281.85 312.47 287.76 312.94 293.64 312.45 C 296.62 312.76 299.58 313.22 302.55 313.64 C 300.96 323.55 294.73 331.87 288.12 339.08 C 279.69 347.93 269.58 355.13 258.63 360.54 C 251.43 364.35 242.76 364.68 234.94 362.94 C 229.55 361.76 226.77 356.16 226.70 351.03 C 226.65 343.14 229.34 335.53 232.73 328.51 C 235.35 323.11 238.10 317.71 241.86 313.01 Z"
     fill="#ffffff"
     opacity="1.00"
     stroke="#ffffff"
     stroke-width="0.25"
     id="path64" />
  <path
     d="M 225.77 330.10 C 224.56 334.30 221.95 338.00 221.14 342.37 C 220.02 348.45 218.50 355.03 221.01 360.98 C 223.23 366.63 229.29 369.65 235.01 370.40 C 243.06 371.24 251.24 370.16 258.99 367.95 C 271.45 363.52 283.02 356.57 292.68 347.54 C 297.55 343.69 301.29 338.68 305.84 334.48 C 299.56 342.21 292.94 349.68 285.46 356.28 C 275.70 363.81 264.49 370.17 252.08 371.71 C 243.40 372.91 233.95 373.10 226.04 368.81 C 221.00 366.14 217.64 360.76 217.63 355.03 C 217.55 346.10 221.45 337.72 225.77 330.10 Z"
     fill="#011431"
     opacity="1.00"
     stroke="#011431"
     stroke-width="0.25"
     id="path66" />
</svg>
